<mxfile host="65bd71144e">
    <diagram id="HIP3nbAZw_EuaXWnEj3U" name="Page-1">
        <mxGraphModel dx="1209" dy="683" grid="1" gridSize="10" guides="1" tooltips="1" connect="1" arrows="1" fold="1" page="1" pageScale="1" pageWidth="850" pageHeight="1100" math="0" shadow="0">
            <root>
                <mxCell id="0"/>
                <mxCell id="1" parent="0"/>
                <mxCell id="7" value="http://ics2o.mths.ca" style="swimlane;whiteSpace=wrap;html=1;" parent="1" vertex="1">
                    <mxGeometry x="50" y="40" width="760" height="480" as="geometry"/>
                </mxCell>
                <mxCell id="8" value="&lt;div style=&quot;font-size: 18px;&quot;&gt;Convert Fahrenheit to Celsius&lt;/div&gt;" style="text;html=1;align=center;verticalAlign=middle;resizable=0;points=[];autosize=1;strokeColor=none;fillColor=none;fontSize=18;" parent="7" vertex="1">
                    <mxGeometry x="15" y="40" width="260" height="40" as="geometry"/>
                </mxCell>
                <mxCell id="9" value="Please enter the temperature in Fahrenheit" style="text;html=1;align=center;verticalAlign=middle;resizable=0;points=[];autosize=1;strokeColor=none;fillColor=none;fontSize=16;" parent="7" vertex="1">
                    <mxGeometry x="20" y="190" width="330" height="30" as="geometry"/>
                </mxCell>
                <mxCell id="10" value="Temperature:" style="text;html=1;align=center;verticalAlign=middle;resizable=0;points=[];autosize=1;strokeColor=none;fillColor=none;fontSize=16;" parent="7" vertex="1">
                    <mxGeometry x="20" y="242.5" width="120" height="30" as="geometry"/>
                </mxCell>
                <mxCell id="11" value="32" style="rounded=0;whiteSpace=wrap;html=1;fontSize=16;" parent="7" vertex="1">
                    <mxGeometry x="170" y="242.5" width="180" height="35" as="geometry"/>
                </mxCell>
                <mxCell id="12" value="Temperature in Celsius:" style="text;html=1;align=center;verticalAlign=middle;resizable=0;points=[];autosize=1;strokeColor=none;fillColor=none;fontSize=16;" parent="7" vertex="1">
                    <mxGeometry x="15" y="390" width="190" height="30" as="geometry"/>
                </mxCell>
                <mxCell id="13" value="Formula:" style="text;html=1;align=center;verticalAlign=middle;resizable=0;points=[];autosize=1;strokeColor=none;fillColor=none;fontSize=16;" parent="7" vertex="1">
                    <mxGeometry x="15" y="100" width="90" height="30" as="geometry"/>
                </mxCell>
                <mxCell id="14" value="(32째F - 32) x 5/9 = 0째C" style="text;html=1;align=center;verticalAlign=middle;resizable=0;points=[];autosize=1;strokeColor=none;fillColor=none;fontSize=16;" parent="7" vertex="1">
                    <mxGeometry x="20" y="140" width="180" height="30" as="geometry"/>
                </mxCell>
                <mxCell id="15" value="0째C" style="text;html=1;align=center;verticalAlign=middle;resizable=0;points=[];autosize=1;strokeColor=none;fillColor=none;fontSize=16;" parent="7" vertex="1">
                    <mxGeometry x="200" y="390" width="50" height="30" as="geometry"/>
                </mxCell>
                <mxCell id="16" value="Calculate" style="rounded=0;whiteSpace=wrap;html=1;fontSize=14;" parent="7" vertex="1">
                    <mxGeometry x="20" y="310" width="120" height="40" as="geometry"/>
                </mxCell>
                <mxCell id="17" value="&lt;span style=&quot;font-size: 16px;&quot;&gt;째F&lt;/span&gt;" style="text;html=1;align=center;verticalAlign=middle;resizable=0;points=[];autosize=1;strokeColor=none;fillColor=none;fontSize=14;" parent="7" vertex="1">
                    <mxGeometry x="360" y="245" width="40" height="30" as="geometry"/>
                </mxCell>
                <mxCell id="20" value="" style="shape=image;verticalLabelPosition=bottom;labelBackgroundColor=default;verticalAlign=top;aspect=fixed;imageAspect=0;image=data:image/png,iVBORw0KGgoAAAANSUhEUgAAAQMAAADCCAIAAADCcDA5AAAAAXNSR0IArs4c6QAAIABJREFUeAHsvWdwXOl5Lnj/7Fbtvesgy7bsey37WsGyJc3IXueo3a1y2apyqXRd/uF1Kq+DSvIP/fA6aNdWsmdGI41GYWzNjDTiDDNBgCQAgkTOaKTO8XQ+Oec+ndHdOKvTD3kKwhAcEmyyKQ9OocjTQPc5fb7ve783Pe/z/if55DgZgZMRkOX/dDIIJyNwMgLyiSScLIKTEcAInOiEk5VwMgLeCJxIwsk6OBmBE0k4WQMnI3B7BE50wu2ROPn/zT0CJ5Lw5p7/k6e/PQInknB7JE7+f3OPwIkkvLnn/+Tpb4/AiSTcHomT/9/cI3AiCW/u+T95+tsjcCIJt0fi5P839wicSMKbe/5Pnv72CJxIwu2ROPn/zT0CJ5Lw5p7/k6e/PQKPnSQoRxy3v/DD+v+I2yoP636P6rrDeq5h3ffY43oiCbeG7rtu5u5xyof1XMO67z0Oy+vfdiIJJ5Lw+lUxgN+cSMKDDuKwRnBY933Q8Xqjzw/ruYZ13zcajyP/fqITbg3Nd93MHTml3/mHYT3XsO77nU9/H69OJOHWYH3Xzdw9TvKwnmtY973HYXn9204k4UQSXr8qBvCbE0l40EEc1ggO674POl5v9PlhPdew7vtG43Hk3x87ncCyrOu6u7u7BEHIsmxZlm3bpVKJZdl6vW4Yhq7r9Xq9VCrJssyy7JFPdp9/YFnWcZzNzc1UKiUIQqPRyGQytm03m81yuawoiqZpPM9LkkTTNM/z93n5h/52wzAYhiEIQtd1URR5nm+1Wslk8ubNm81mU5ZlVVUlSeI4LpvN1uv1Aa5UTdMIghAEQZZlhmEwX0tLSxzHybIsSZIoihRFsSxrGMYA7zvYMX3sJKHZbL7yyivnz5//+7//+0wmo+v61atXP/rRj/7hH/7hX/zFX2SzWUEQGIZpNpuKooiiOKjhqFarL7300uTk5D/+4z/G4/GZmZmPf/zjf/zHf/yRj3zkhRdeYFlW07RyuczzvCiKuq4P6r6Duo4kSaZpSpJUqVRM0zQMo1AoPPPMMxMTE//wD/9Qq9Vs23722Wf/5E/+5EMf+tAzzzwzqBWJe3EcZ5qmruuWZZEk+dRTT83Nzf3N3/xNtVp9/vnn//RP//QTn/jEn//5n58+fXpQ9x3UuPnXeewkoVAo/Nu//Vs4HP7qV79aKpVWV1d/53d+59SpU5FI5OzZs+122zTNcrls23axWKxUKv6TPOCJZVkvvfTS2traK6+8Eg6Hx8bGPv7xj8/NzQWDQV/8ZFm2bVsQBOx2D3jHwX5cEARIgqqquq5XKpVCofD0009LkvRXf/VXsix/9atf/cu//Mu1tbVgMDgyMjKoFWlZliAIPM+bpslxnOM4giB85jOfoWn6k5/8JM/zn/nMZ5555pmdnZ1wOCzL8qDuO9jRe0xZXjiOe/rppy9fvlyr1T796U9/7nOfazabhmFIkqTrOkmShmGIosiyrGVZgxqRfD7P8/zIyMi1a9dEUVxZWfnrv/5rWZZDoRDLsrquq6pqWZamaSzLqqo6qPsO6jqwiCiKUlVVURTIQygUev7553d3d/f39z/84Q9fvXq12+2qqjpA60hRFIZhoBNomhYEwXGcSCTypS99aWtrS9O0f/mXf/nCF77AMAxN06IonkjCvc64ZVmmaTYaDV3XNU372Mc+9qlPfarZbEajUdu2oRBg8jqOwzDMvV73jd4HoVJVtdPpWJZ15cqVP/uzP/vIRz7y8Y9/fGFhQe8fqqoa/eONLjacv8NycxxH13WO4zCA9Xrdtu1CofChD31ofn6e5/lyuWxZ1qBWpCAImqZJkgQXjqIoSZJq/UMQBJZlP/vZz/7+7//+Rz/60d/7vd87kYT7WBlwsHieh9p98cUXP/WpTxmGsb+/n8vlms2mbdvYXUzTHKCfUCqVLMuqVCpQ8RMTEx/96EdLpVIkEuE4jmVZmqZ9D36Anvp9DM1d3wo9oCgeZJDvHzjPZrMcxzEM80d/9EeXLl1qNBqaplUqlUFJgqIotVqN47hisfjtnQtOs2EYqqpSFFWtVj/bP0iSDAQCJx7zXefwO/8oimKpVNJ1XVEUiqJisdgHP/jBr3zlK9euXXvqqacikYggCPBZRVF0HOc7P338V4qi0DSN/UzTtPHx8Q9/+MPFYrHT6RiGUSqVJEkSBKFcLmua9nh6zLCLmP6BgZAkSVVVQRA6nc6Xv/zlP/iDPzh37tyVK1f+7u/+blCSgNHgeb5YLCKugFtXKhVJkmRZ/sxnPvP000/DJGNZdlD3Pf5MH/HJx85jhpLlOK5cLjv9I5FI/NM//dPHPvaxV199lWEYkiTV/sEwTH/bU2T51o8kK7d/ZEl53Y8sezNzxFGr1URRVFUVQdKlpaUvfelLJEmyLPttp5PneVVVOY4TRbFerw/QKjvi69z3r/E97f4B4wcP4i++SqVy7ty5T3ziE3/7t3/77XjA0SvSH8/bw+qP7+2T/pe79TZRFBmGqdVqzWaT53mO4xRFEQShWq0inPXCCy/8+7//e7vdJknyxDq6j3k9aoaO+L3KMQLPSqKgSLImypogK5wkM4LAKTKnyLwiCaosqJKoyZIqy1rfl1RVrX/AfoCvecT1/8PWJ4iiKN0+DkyPwnECxwq898NLvKCIkqEopqpqkqSKoiJKsiDKoqxIqqrommb0pePABW6ffteN52OnE44awSN+r3orXdRlSb8lCYrGywqnKIwssYrMq7KgyZKhqpam2bpuGVALuJqf93mc96rbS+uY/x8xbsptKfD+9y+tKKqh27pm6aqhyqoqyZr3I2mipPCCIgiKIMqCKAmSLCqypCmyfiIJ/ugN+OSomTvi96qmGJpiKrKhKLqs6IpuqIapmaZqmoqpS7oiqBIncQzPUCxFMZR44MBqwAMccf3/sDrBl4TvfHyVZQSOFXnOW+6KJOuKaqiaoWq6ouqKqsmKIsmyKIuCLPDez4kkDFgA/MsdtSKP+L2qypoq66qsa6ppmnbFqdbqjWarve+6PXe/3W03WvVK1dZNTdFkSRH7uX8RySBBECRJ8qMud7yF/8W+S0/u+FCKcksn4KEOvEftA0pUXbccp9ZstjrtTq/T2+/uN2qNerVec2qVimMYlqLogiBznHgiCQ9rYRyYlXs5VSVBlkVFV42K5TRqjc7enru/73pHXxbcrouf/c5+b6/X3dM0L/GEQBAkAUmoo272sJ7zUV33DZ/Lf0M/DKGZllNx6o3mXqfrjeDrfzpdt9Hcs+yqrOi8BzW6s9r0L3vo5FE9933f57vdT1BEXlRl1bEq7UbL7fZuT92+u99z97vufufWj9txvZ9uvVa1bRvJoBNJwDJFLA6SYNlVp9pstns9T6l6P919d69769z/TaPVtSt1TbdOJOG+Ze4eP3BoC3nDl6qsVExrr9nqz9W+29v35KHVdjt7bqftdvfcXv9nf8/db7uupxZarZZt2wDwwTrSNO2oG93j135s33bUcx38PSShH07TW+1up9cXgL4y7bhue9+td1yn5TY6/b2k//ue67b29uuN9okkPKypPzhD93JumWazVnN7PU8Gej1PDBrNrl0xaNrm2Kostgy1V7Pdvbq73+oLQ6/b7dZqNaiFE0nwFQIkwbcpO67b7Ll6dY9RK0VeF8yGWt2r7rl70K1QFz33RBIeVBJM0xT6hyzLhmFw/UOSJNu2gfREQtdxnHq9zvM8cpmKonAcR1EUcluGYfS6nf3OnmcL9bpup1PhBSGblbJZh6GNUlHKZgQiJZeyFZHpVQ2303T3PUlwXReQfSSeALAzTZPneSSAkGQA4gN4NbWfheA4Dlm2crnMMIxpmrIscxwHkEi1Wn3QcTnu59vttizLGFKKomRZpijKMAxcD1EBjCGgU5IkaZqmqipqLWq1WqfTae912t2eJwNdV7ZrBU7NUFJBNCm9TnA6waoFXhetRq17Szl09j1rlKZpwzAQhKjX67gmBAx7Gb4DolX4brqu12o1AJMcxykWi69//3FH4pifG5qfQFEUz/OVSgW4MR/mgOwyxsuyLKR14eCKoqhpmmmaGGue5xVF3u919jttzxnoddx6zaYZOUNo2WyVLNvFvJbNyERKKxI2W27rYrdquvu9/f39Xq9XrVbp/gHsBqBEqMixLAtrCIA8kiQpigICnKKoRqMBLCpN01hbmqbZtg147DHn4YE/RpIkvoau6yjTkWXZt/owgAAg0TRNUZQgCD5ISZblRqOxv7/f6Xb3er1Gp2c393jDKfB6mlEJ3swr1YxgpVmd4HRGq5rNbvu2ZnD6wygIAoC6uq6jKOegDCBvA0mo1+uyLAO1atu2ruuo4HnzSkK9XgduUdM0YI0AkyyVSpVKpdfrCYKgqmqxWEQCQFEUlmV5ngcsVBRF0zT3Pbe44/Za3mbfrLc11SyWtHTGymar+byTz1lZwsxljELGovIOV66IjNvdgyS4rpvJZPL5PNAywOdgT2VZFsgLAAcsy0I5WL1ep2kaf2VZtlAomP0D4Dx8sQde0se8gGVZgOjG43HXddPpdLlcNgwD2XR/nflXBzoDVWyKorRaLYTbuq5r15u8bpGymRetDGcmOSvJ22nR8U5oLSeYglWvtLvtfc+daLZahmFEo1FgnDRNEwQBip3juIMxCYxVPp8HdFIURUAbTdPMZrP+N4R8+t/zkZ0MTSeg9EzXdcdxlpeXb968ubq6GgwGr127duPGjUqlghLKWq1mmibLsq1WCzMNPCNsmL29/t7Ua+63qm1Ts2lKz2bNdKaay1UJwvvJEpVcxsqnjUJaL6blUnZ/r9XpdPphVm+5hEIhAO9YlqUoStf1RqNh27bjOLVaTVVVTNjKysrExARJkhcvXrx27RogelNTUwzDVKtVIJMHi4293xWAhXjq1KnNzU2CIGZnZ2dmZmKxmF8cA+sOSkzXdezKeDpVVff29nxJUO1KkZNyvFqQnYzoRBkrzFgpuRHnKjFaT9JqSTZVp9HoevElRKwXFhbS6TRGEirUx7HLsgxTE+v+1VdfzeVyiUTi8uXLW1tb0Wh0bGxsYWHhzSsJgOzCtB0ZGYlGoxsbG1evXnVd9+rVq9jhNE2jaXp1dXV+fv769esTExMrKyuFQgEmqW3bfbdtz3Vb3YZdlTi9kNMzmQpB1LPZajpVy6TrRKaWy9i5lJ5NKESMzyb2vdCRt/+5rlsoFBYXF0mSpGk6k8msrq7euHHj6tWro6Oj6+vrKNCBTi8WiwsLCzs7O+Pj4+v9Y2dnZ3FxsVAowHVBESNJkve7ggf1/lKppKrqyMjI7OxsNpsdGRkpFArT09O1Ws2yLJ7ns9nszs7O/Pz8xMTE6OgokO1Yo5qmHZQEXtPTZSbLKQW1mhKrIcbaZey40owJ1Shjxmklyymcbjvtva7rdvpO18rKSigUIggCOPbV1dWJiYnp6emVlZVwOJzP52E+1Wq1paWlfD7/6quvxuPxQCBw9uxZwzBGRkbevJJg23a9Xi8Wi4Ig3Lx5M5fLLS8vj46OSpJ07tw5lM9TFGVZFkV5EAnfMbVtG1U1pmn2PO/OkwS35Tgiq+UIk8hUCaKeydRTqUY61cika0TayaWsXELLxsRsYr/dvDXr+/s0TePWhUIBpr9hGLZtG4YBJgHDMEiSbLfbDMPMzs4mk8nd3d3Nzc2bN2/GYrGdnR14O+VyGUb5oJb1Ma5TrVaLxeLY2JjjOK+99trY2JhpmjMzMzzPA8fuZ9NhL/kFqFBoviR0XJdV1GSJyvJaQasnxOouY4fFRlRuxaRGXHASrJ5hFUYz7War67qtdtt13Wg0ur29HYvFyuUyTdPFYvHgIxyMAa6urhYKhYsXL6qqura2durUKdd1T58+/eaVBLjCPM87jhMIBObm5qanp1Op1OXLl2dnZ1F4IIri3t4eTE+UBKCGmKZphmE0TWs0av3AaMvdqzkiq+eISpZo5LKNdLqZSjU9YUjWMkmHSFZySbuQ0svZXqvhui4mnqbpmZmZaDRKEATq0SAPiqLwPE9RFKIiHMdduXJlfHw8l8tdvXp1ZGRE1/Xz589PT0/TNA23D37qACuHDq6keznPZrPtdnt+fv7ixYsURY2NjZ0/f55hGKwwlC74KxIuLIraEIeAnuzt77d7PUZW0mW2IFlFvRnjnSDnxLVuWGrFlVZaaWbESpbXGdWyGs3ubesomUyura2Fw2GUmLdaLQSm/HQ+y7JMv4DzzJkzgUAgl8udO3dufX09k8m88MILGxsbb15JQD0AzAnHcVCNjvBLvV4XBAGRNQRYUQmFOcMQa5pmWVa16rj7e55a6DRrsqAXstVCrpnP1dOpVibdTCfrqXg1HXeIhJNPVctEhSl2m3XXdSuViuu6JEkuLi5ubW1lMplSqcTzPOIqcNo4jlNVFdXSoDBBoYLWjxShPgtWHPAa8KTvZdU+jPegMqbVaiGkW6/XsXegfg2eK3wGOAyKooCNArGBZrPZjx31mt19WtYzlFhSqyWjHeXsEOsQlhsR60mlldPaOaWWF82+JLQ6fUmoVquRSGRpaSkSiSSTyWKxyDAMxMyXBz981Gg0MLMYQDiBh8T1YYzPG15zaB4zSFNEUUSpPkmSrusiXgSFjmnDXttoNFBaCQgxinVs277l+3oJta4t8EouWynl7Uyynk03iGSDSNaJRC2bdHLJSi5l5b1w6l696rouPgibZ2dnhyAIeAuqqjqOA/+E53nbtpE98OtgBEFA8PTg5B10Ct9wxB/eG+A0o4LZsiyQRPnx037Q2Vv9lf5hGIZpmgiO6bqOAdnr7bdcNy8YOcHMiZUUZ2WVRoJ34nw1LdUTnE0IlSxvFgWjyKt9/2y/Vvd0bDKZDAQC4AEpFAqSJKGcGn4IhA36luM4zDgKJBBmOKSyfN31KONIQ5MEMFVhoWNoUD+JnRg7CqwUmqYtyxofH5+amlpdXcX2hlRRz4te3Mp2WoIg57N2qWARyVouVc8m6tlELZuoZhO3JSGtFbNHSUIgELhx48bExEQgEIDd7+trrDA/w2BZFlg2MLVwqRVF0XXdz2Q9vOV+1JVZlsXKRlQaQXrkH2GzwfMhSXJpaenMmTOxWAwlqVAOkAQvKuq6OcHKCnZWdNKclZPrSb6S5CuEWE2xZlawcpxRFIzSLUm4FTva2dlZX19PJpOZTGZmZubcuXPXr19Pp9OIfXMcB++OJEnk0eC0+BWz+OYHBcA/P+p5B/77oUmCruuCIFQqFZqmHccBPw/2rUqlgvAlFhYWIvARKLdH7I/n+ds6wXW7vQeUhGKxSNO0qqqVSgUZU5+1AT6JoiiQEFAKOI6DXJKf9YNwDnyG7vGCSB3ACJFlGXs/y7KIsyF9ibwhBJiiKE3TqtVqpVJxHOfYkuBhVvs6YWNjIxQKFQoFUAZiKfuDgy+GdJCiKO1222fjazabfompLwD+yT0+/oO/bWiSAAAcUrNYQxzHYT+zLAupSo7jCoUCwzA8zyMHDNgFNjzLstr9wEUfL/agkkD1D4ZhoHOw04PMQtM0f7PXdR2MJsj34W2AWoiiV/bw4FNyvCtUq1V8AVjh1Wq1VCrBTIeyQrQXsoHMDFgwIOeQhO7964ReP6EQCoWWl5fhMcMqUxSFJMlSqaQoim3bSFwC4QKwjGmaNE0rikIQhK8ifAHwT443Gsf41NAkAZkE7F7xeBxJymKxuLOzE4vFfBoSYHuwbWDmwL2FQOcAJaFUKkEUkVYDcht+i2maFEURBAG2pfX1ddM0Nzc3I5FIoVCAqwNek4OVkMeYjAf5CHhxdnd3kU2LxWLhcFgQBLJ/II8GweA4DnbRQ5UERAWbzSZ4WhFUkCQpm81CfRUKBcuyRFFEpt9f+odOHmRM7uuzQ5MEbBIIUy4vL8/OzqZSqYWFhUgkcu3aNd8isiyLZdlcLvewraNcLufrbgTg4a4BohOJRJaXlxmG2draOnXqFEmSc3NzgUCAIAjgPuDqDJEHiaKoZrP56quvbm5u0jQ9MTFBEMTq6ircA5CmIe9rWZbjOA/bOoJVhpE86DefOXMGQbavf/3r4XA4EAhks9lXXnnlkAD4L+9rNT/Im4cmCTAzgNhBumpubm5kZMRxnHPnzgGLAStzY2NjcnLyYXvMGxsb09PT586dO3PmzPz8PDiXfJ84nU6vrKzkcrlAIHDq1Cm83N3dzefzAPD5qcAHmYwH+SzyIVevXg0Gg5ubm9euXeM4DsyWAJ8Wi8WVlZWRkZEzZ86cPXv2EXjMly5dmpmZoSgK2SHgu1ZWVrLZbDQavX79ejQa/TbXIEmSd2WdeZBRuY/PDk0SYHkjYArDcWxsbGRkpFqtfuMb36hWqwiHA+dcqVTuGkUdgMecy+XgFUiSxDCMn7swDAO0Vmt9bt2NjY2zZ89ub2+vra3t7u5ms1loEsTmH2XU79AkG4ZRLpfBG3v69OmpqSme59fW1pBR9jNceMZarXZEFPW+Y0dHRVH9TR1JGASjK5XKysoKQRA3btxYXl4+f/78yMgIy7Jnz57133/o5NBjPryXQ5MEPDAQ6slkcnJyEryL586d4zgOfgJcQERaAVyBJoGWNwxj4H4Cvg8MHjgkAKstLS2trKwwDFMsFqPRqKqq8/Pz4XAYSVwgQXyc88ObrbtcGe7KzMzMzZs3OY5Lp9NTU1Mcx5EkiTAAvFXIKswVxHNEUbRte79f/L3Xu29JaO91ut3u7u7u0tJSKBQqFov5fB4oY57nEe1ALk8URZqmx8bGvs20CVqdbDarKMqZM2cIgjgkAP7LuzzyYP80NEkAyyJiQahD8BMF8FAVRXEch2VZ0KohNA7UNNKTCMYNKp8Qi8XgtCDoUS6XBUFAhhtM3eiRAWo3BI50XQdICVYcAvODnZ57vxpqNoCrg1EHs800TQwXgCqoiELieSCSACxqOBxeWlra3d0F7ghkqaDig6vgQ2JhI4mi6LoudrRKpfI48E0NTRJQPKmqHjcLwnxIJmA9YRsDOzx8L6vPoY0QBCSH47hmszkoSWD7B3IIYGXFJgrwAuK8CERin8NffdsDS3aI1hEoGYH+QDMRhMLwLIjzIqDZbDa73S5K1fD7B9EJna6X3IzH49vb2+l0GhWFHMflcjmSJKEnfdsMmwvSNYAhIXn6ppYE7F5IYyHkwjCMYRiAMSLboCgKvD1BEG7cuDE9Pb2wsBCPx1F7pWmaJwYDyjGvrKxM9o9QKCSKIrJmsiwjTo9eNVhnuq5DawGi54uKn9W69418gO9kWbZWqx2swgMWGmjfSqWCuspkMjkzM3P+/PlBSQJ0QjweX11dXV9f39jYuH79+vj4+M7OTiaTgROFNBEKX9F7qtlsSpKE+lLw2/rm0KGTAQ7R3S81NJ2ALmkcx0EksHUpitJoNPCNEf5DXQ7sED+rhSwv4oaDkgRN01BKghZJvulfLpd9TDhMasMwaJquVCqIlKOSTpbl4aItbNuGZDabTRTTOY4DHQXjDWlmKGEUzQ7EOmrvdXq9XigUWltbi8fjUK2oovYVLL4AhkhRFBR1NJtNhmEoiqrX6yRJHhIA/+Xdl+8A/zo0SfBr8ymKQroReJ5SqYQiHsdxkKiCbwAUEOrQkZmWJAm1+QPJMQMmAL8FBf6GYQCNB0MWbWNQ7oiKBaj+QwbSAOfmvi6FYjR4COhzgwwuRVGAcln9A9uzb+A9uHXU7SeZkWNGn8hkMkkQBO570E3H47Asix4OhUKhWq22222CICC0/uo/eHJfg/Agbx6aJKBZE4AVtVptZWUFwcr5+flgMIhMEEmSgDOgeSNCSQjsYOeGcTQQSUDNjX8LwEuBLuY4bn19PRgMiqK4ubk5PT1tmiZiRyzL2v0D9u4QM2vwmkRRHB0dtW17e3sbZQAo6seufNB5HZR1VG94XkckEkHbUpZly33Wj2KxSJIkoh3oBCBJEsuyc3NzYC25ceNGMBiUZXlsbCwejx9c/QfPH2Rx39dnhyYJADIAS6dp2iuvvBIIBCYmJlAnmUqlsDFDErrdLtC82NL8KOpeu+2BIbv7QGX3sah5i0jWcx4qu0kkGkSink1Ws0k7lzLzabWY3avdGZUdi8UgeALPcyyrKaptmIbmwQSBrQgEAtVqNZPJXLlyJR6PT01NbW9vI1MLvCCwx/c1+gN8M9qdlEqlp556qlwuz87OFovFra2tg+XLkAoYRXeUhE6f4qXMKXneyIkVYFHTnFfX771kjaxgE7xZEMwSr/Rug9td1w2HwwsLC5ubm9lsNp/PMwzTbrfBBoJh8QGCU1NTpVIJ4KgzZ86srq7quv7qq68eXP0Hzwc4RHe/1NAkAYFI1ICPj49vbGwsLS1NTEzU6/Vz584h6AbdvbCwMDc3hzTz8vIyHEF0tvMoUHs9t9NxO3sVgZPzhF3OW0Sqnk23Mqm9dLKdTrYyyVo2aedTejEllwhPEvbd7p5X1I/6hO2dnUyWCEXCs3NzV8bGro9PrC4uxXZDTKFkKZoseu2EJUlKJpOqqpbL5dOnT6NaN5FIIEKCPs13H+iH/VeA6s6ePfvyyy+XSqWJiQmGYZaWlgRBwMaRy+Xm5+dHRkZGR0enpqaSySSwd8AX3qrt3u+63brElEhOKghWmrPyci3HanlWKQk6wWgZoZoSnJxolznZYxXZq3mUm31J2NjYiMViBEEEAoHFxcUbN25cu3ZtcXERMBZEV03TDAQC4AdJJBLIfjAM89prrx1c/QfPH/a4+dcfmiTABEfkdGVlZW1tbX5+fnp6Gnl40IFBEhCYQ13bQT3rdZeyLI/mqNt2uy1LZIRi2iBzei5ZzXs6of0dkpDUi0m5lOn0JaG313H3b0vCricJxXKJYVlF7vOky6olq6Ygq6zXSoNl2VgsBvk8derUzs5OOp1eWFgIBAKpVArJNb+gwh/ZR3wCh3hra+vq1auJROLatWtbW1srKyuokoUegJflOE5DCWVqAAAgAElEQVS73fZj1uh8c8vj6kuCyJSLvJaR6jGhkVH2MpyZZbWCYCVZKy61I+JeUmrlBMszTfca/eoQNxgMLi4u7uzswChCJhs7CCoTgCZWFGV9fX1ubo4kyRdffLFcLs/NzZVKpTNnzhxc/QfPH9kwDk0SEJzheR5wBlCDKIqyvb1dKBRs20Y54rfb+rZaLZRWQTCY/oHcTafTdt226zZct64qJE0mZYaQijGzlHBy8Vo2Xu//VHMJO58wCgm1lOnWqm7Pfb0khCJhkqJ0TfOI5VneEGVLVBROEHlvT93e3t7Y2OB5HvZbsVgMhULJZLJUKkH7I+w7RD8Bq9yyLMQuc7lcOp0WRdGPcfml/cjPAMACKIRl9Zd1vxSz47p53ohJe0HVDUhuSHfDQjsmNBLyXlDY21bcDcXdVt2w3Ku6bqPr2k6t1+slk8mtra1wOJzJZJLJpM+QAGGAhgdr29raWiaTSaVSgUAgGo1alrW2tpbL5Q6u/oPn//ElAcsa8mDbNnDzKGRrNpuO4wDdyTCMZVmoE0dyDfhn0An2uS1arlt33aqqlGgyLrNpsRgxyjG7EK3morVsrJ6N+5VrZj6zX72zJJA0xffbKXA0w5YphRMsSbUUzdC8Tswcx9XrdURRC4UCrF7UHPqxSMS4HtnMHboR0sa6riMtU6vVeJ5vNBpYi8hI4msjz4XfIDDQ51DzEgO9/r6SFeyI1N3tS0JYd6NCM8FXU1IzxLd2FDfQl4SQ7FZct9Zz213vg5FIZHV1dXd3FyE4OMcQAEigH2KGh9BoNJBeqFQqiUSi3W4fXP0Hzw895sN7OTSdoGkaStVAeodmdWj6jQQWphAxe9Tao6wMdghISlpeeX7L3a+5vaolFYVSTKeTaiFsF6NOPlLLRRpEtJWJtzKJvqWUqhGE63iSsN+3jtg+d8t23zoictlkKuUh6ljOUDVb1S1JtVW9Xq0RBNFutwFeACUZTDtfEpCB9if74c3WXa4MzxhMjNAPKBuCdQQWgkqlomkaai3QnRYVC6Zp3kJwue7+/n6ZkzNiNSHvRYVmVmnmWaXM8DQv5Rg5JdajYjsud9JizWNS6Besua4bCoVWV1dRsJFIJOLxOEogkA5SVRWwFJZlHcdBNoaiqFqtBl/lTV2pg5iMaZrFYrFa9XoagMkdJfPwp1GrCUDe2toaLFHQH4E4tesxou653YbbrTlCSS7ELCqp5T1JqBQinjBkYw0i0cyk2ul0J0U0Mjm3UutvfZ6fwNIeixE85o3NwMLS4vr6ei6bVUSp371QMmVVU9RSqQQAkp9TQ34UkNWDJZFDZHmpVCqtVgvJLIR0QSALDmO/EK9UKm1tbU1NTcXjcZqm/SjcLdxKXxJITiIEJyV5qqAgV8sMz9AUzzElmssKdkKop6QmIVS8Hi0dj1rTdV2wP6VSKYIglpeXr1+/DsIvP+2IcDnYBniej8fjtVoNKTaYxwf1wMHzuwj/YP80NJ2A9Ce4UP1sPJAqcP5AMAFvAROGnQNjiiBss1H3YhfdPbfTcnhKySdsMq3lI2YpZhSjRjFmFBJWPlXJZapEtp7JO0TRrdS9JjvtjttzuQOSQNJUiSwjFi72e07qkmIoKseygKM2Gg1k+oB6gtLHV/Ljkj6d1mAn6V6uBmSKn8lCgSsKA4G6Q4m2z3OM3DnUmmmaIIDa7/Oo5QQzIbWici8stAmllWdlkuEYTsjTYlqsxcRWXO6kxHrL4x7sy0FfJywvL4dCoXK5jOpN5GcwMvhWMJng8iGDKYoiSZLVahVYvYMC4J/fy7MP5D1DkwQkboEwhdbGOoMRgoQuUGXwInymCSCKFUWpVqteMNQLa++77W6d5UwiXSsSVjZWKcaNYkwvxrVSUiumjULWynliYGfLtyShdUsS5m7rhEQ6RbOM0idC5TlOFiVNVmRB1FQVXwyJW/9rAOPpZ6ywEG3bHsisHOMiKBWCBgAsRRAEiqKgspBJgK+MekA4XSjg9D1m30+ISXsRxQ2JnbSyl2O1EiMcso4gCe3ufrPlceAlk8nNzU3oAZAuQ6vDd/JRxkinIgAIDxBKzC/W9QXAPznGUBzvI0OTBJ8Cnuf53d3dqamp2dnZYDB4+fLlhYWFZrMJ3CISDojPSJIE+gmGYWAK9zr7busWH2S7zDfT+WYi1csR7VyyQkSMXFTNx+VcQsmmNYIwUjktld83Hbfd89RCzy1l87PTM+FweDccIvI5huckb/GLHiDci63YXp/JPqP69evXQQw8Ojr62muvgXHxxo0bxWIRswg9hhK8483EA36K5/l2u33jxo2pqalcLjc+Pj42NgZhQFYexpIfYsIYAp1hmmanz5q877q1VifP6YTWjatu1nGjXK0omIJqlhk+R4t5rZVS9rJap6w1vDyC2/Poyvv5hNXV1Wg0SlEUSZIoYkbaFJgxMMXTNH369GlBEFKp1Pnz51N9x+zChQs3btzwl/6hkwcclnv/+NAkwbbtgyWayWRyaWlpcnKyUqlMTk4CyIUcQrlcBpQll8vl83kUQIPAdL9v5nhB7bbboWW3xLpEziXS+0SslYtUC56ZpJXiWjFlFAgzmzWyBU8M2j233nK7rkAxS/MLsVgslUnHkolEJh1PJcPRSCqd9hhobNupVCB+HMd5AtM/otHo+vp6PB4PBoPpdBqRU6B6hhhFBepTluWZmZlIJDI3N8dx3NzcHIiYoCsoisr1j2Kfpg7KAaQKkAS3H0gtcUpSqG2U7KCwF+EbBG9mKYGWjLJkl8xuUmxGaTNZ4r1Mjtewy5OERCIRCAQikUg2m43FYolEolAopFKpdDrtFzNBM2xsbJTL5Zdffnlvb29mZubChQu6rl++fPmQAPgv730pP+A7hyYJoH8EiI1hmN3d3cnJyYsXL+7t7Y2NjQFPhmj37u7uysrK1tZWKBSKx+MoK0OErra357iu2vFQYA4r9ErkfirZje50YoFefrdZ2rHJHYMKGlTUKMetYtIsZL3ueR13v9p0u67Ki8sLi14UnCC2dnc2d3fWNgNLqyub21sZgoDRD0JIkiQ937p/zM3NxePxpaUlhMb9qhfU1j3gfBz747ZtA4A9OzsbCASuXLkiiuLs7KyfnSwUCvF4fHd3d3t7e3d39446wXX32816iea4mptQ90OyG5F7eb3j8eExWrgoByk7LjSKWosWdbfXdNu22/GIxxOJxFafAj6dTu/s7Gz32YLD4XAikQDhJ1a2pmnIOp85c0bX9UuXLt28eZOm6ZGREX/pHzo59oDc7weHJgmI+sGiTaVSKysroCidn5+/fPky2LBRRAawJ4KqkiQ1Gg2f0rDTT6p5zP97+91cyd2OuLthd2fLjW65sTU3uepm1tzMupvZdNM7biLophOuqvutwhROmJ+Z3d7aisZiJENTHMsIPCPwvCQqWr+ZlKYxDIPN9Vvf+lY8Hp+YmPjGN74hSdLIyMjCwgJJkuBkB7Z8iHxHJEnm8/mFhYWbN28GAoHR0dGbN2+Gw+FKpYIIJlwCKFsUeLxeJ/T6lmaCMTN1d8dxF3XvZ8t2tw030XB3LXdVdbcMN6y7Ydr2rKNOu9Vs9Hq9SCSysbERjUbz+Xw8Hk8mk17woc+bDcvWjzifP38eqvXatWvT09OxWOz69etv6op+1KxhfaM+GFy8CFkCvI4AkY+6w/aMiDiqOhuVqtcU0um4QiX9z8/N/R//Y/tXfzf0s78e/cAvJH/llyO//ks7v/XLG97PrwZ+8zc2f+03J//P3xWnF91KAz1pRZJZ6EtCJBrNl4pFimQEXvI6nWu8JFIMXSqXa7VatVplGAYNCnK5HOp4Cv0DJjhcarD63e9WNKj38zwPzmOQZyqKkkgk0MwOuRo/2OWn6l8vCS3XpTru//2Vqd/+1xu/9szaLz0X+bWvER/8WvLXnwv+/OdWf/0LO7/xpdBvfzX0u88u/F9fvL5Yqpn7Xke2/f19P59QKpUKhYLfLcnP5SGFB+AMGO9QmA6fvlgsHlIF/stBjc8bXmdoOgFlMSAYRfxbVdV6vZ7L5cBxRNN0o9EA6SICHSimQWgfsRqv32a14VZbruKU/p/PLn3gt4o/+0Hl/b9SefIXjPc/oT75Xv5n38v83Pvon3uC/sCT3BM/t/2rH9x5/t9sWoBaEMr08txCOBjKEESRLOfLJZJlJE1VTUPWVElVdNNAgpnneZhzxWJxb2+Ppul6vQ7sGn6P7zPEfAL8AdiTB2OXKI4FiB2pTL9E4fWSUHNdynV/+6np93xy9h3/Ev2Rf83/6BfYt3+R/q9PF/77F8n3fJV7x3Pk+75U+JlPr/7iJ6+djjcKDS9ggf4JKysrwWCwUCgAlQhgr8/XjVAShhGl/T6GAF2n/KV/6OQNV/Cg3jA0SUDOBSVU4IgHAzbiqsh9IrJRLBZLpVI6nQZehWVZ8NVJktRsN9pu3e05rqNH/t9PXv+FX0r9/C+R73mP/jPv1t/739X3v1188u3cB36cffInuCfeIbz3nTu/+AuBZ59T8qRb33M7rkxzK/OLod1goVgMx6LboWA4HsuViiTLlGmK4TlV90wzPyCIWjmEX2A1maaJnmLIjg9qVo5xnVarhf0VABY0YUHFMHANCOrzPJ/L5aLR6B39hJrrJnvur336xhNPBX/qy/T3PkV//5eMH/6K/QNfVP7z56jv+Rfqf/7/iLc/W37/5+O//Nn5U8lOxPC4MCAJa2troVAom83G4/F0Og1som+S+VInSRIUBdIOjUYDZWuHBMB/eYyhON5HhiYJqFADDY6/2uAol0olGN/5fL7ZbKKkOBqNIoKEYgBAG/Z6e023sd+z3Ka687lPLv7Wrxd/5ZfJn36n/v536O97u/b+/yY9+V+FD/w34Ykfk97/4/LP/HjwFz9AvPSyWaRcu+ru9VReWJj1qOxyxUIinYom4plcVpBE1dBFRZJU2ap4tNgcx7XbbRDHo1MtCrJQFIbukQjdDLGiHysMaUcwQyKE6usH8GdKkpTL5YLB4FGSUHbd//3zSz/9+cSPPkv/T58u/9AL9R/5eut/eUZ+61fst73g/Jen+B/7svSTT6fe909zp9PdfN01m/udTiccDq+vr0ciEYIgIv0jkUggagRODZ+6AY4KHCqfKf1NXdGPmcOI+IFnOA+gtIA5jtp5v6gSmRpYU7Is9zpdt9N1uy23ba195h9Xf+GX+J/9ee5n3iW/9yf19/+k8t6f4N73E8KTP6l94F36E+8U3/NjgSd/injhq9VCya3X3G5H4tj5xfnAzk6SIGgvE8uLvCiLsqYquq7qlm7YhiRLSIui4Avzit3X37cOnhxvQ3rwT0mSBPApWuiC2AuoLeg06TuPO1bqVFyXdN3femr2x/418X3PsD/8vPz9n+fe+kXpB74ov+U59fu+qLzlOeVHnpfe9lT+fZ9dfy1sUBWvjwvyCcgxl/oHfBIw4sAABtUATGJgt9BlxzRNVPQ/+Ag84BWGphMkSarX63ChZFne3t5ut9toJAWoNkwgpBRghfsNbBBZUlXV7fTc1r4HndirrH72Hzd/7hfVJ/43/qffJb3vHdr73ym/9ye5971DeOLd+pPvMd7/LvE9b9988t25r32lUSi4NcfttkWemVucX9/dSWSzxRJJk4zIiaqkaLIsSQLD0xRHFkpeq1mYFoh0YSc7uPoPnj/gfDzIx3u9XiaTgT/qum42mwV6xScnPSgLd5QEx3VpTxJmfvSpzPd8Xnjb8+JbP0/90Be5t35RfMtz8vd78iD/8PPKW58u//TnAmdCCmu3m1231+sFg0GfK7tcLgMxiVJ1oDx8hmC471DptVoNcJUhxtz8AR+aJCD4DcsnEAjs7OxcuXJleXn56tWrExMT4FhGLRjirQjGobEfQA2SJHUarQFKAlWmeYaXeFHxGhyKoiKIqsDyHnsKms8yDHP58uUzZ84AvHBQAPxzf2Qf8QlW9sLCwpkzZ3K53KlTp0ZGRrLZrH7EMShJqO/1wG0BLGqxWMxms8ViEZ4eNjVd10FiEolEFhYWLl26VCqVLl++fOHChWazibbNj3i4Xn+7oUkC2n3zPF+tVsF3MDY2du7cOeSYUYuIuGQ6nd7c3AT8PRaLgRAJHtgAdUJgczuwvrmxuhFY2whubyeT8UI5T/OUKIssy05MTCwuLgYCgeXl5VKptLm56S/9QyevH+JH8xsYltVqNZ/Pz87OXr9+3bKsyclJlBDRNJ3L5eLxOJrfgD8BLsRBNshj6ARYR7FYbGNjA5U6kUgkFoutr6+vrq5ub28DCwgaC2RmkFrmeX5hYSGXy4Gp5NGM0l3uMjRJkGW53W4jYWwYxsTERDabHR8fV1V1bGwMpi3Q7YVCIRwOR6PRTCYDdJePevcSxgOyjvKFUj5byGVyeSJHlUqSJFiOWW/XJMWr3oQkbG5urqyslMvlra2tQwLgv7zLWD/UP4Fx2TTN0dFRYC5M0xwfH6/2u+bgr6BJLRQKIDZ+qJKAHFE+n8ddGIYhSXJjY2Nubm5mZubixYuCICDfDLjxQx2ce7n40CSBIIhms4nuUjs7Oy+++GKwf4yNjV27dq3RaPjgBYTt4SrA3AS0+NFYR5zANRqNkZGRiYkJjuNGR0fPnj3r85T5AuCf3MugP4z3oFTtG9/4xoULF0Bqf+7cuUKhADAIXNiDrvPDto5wX5RAIOUiimI6nV5cXLx8+XK5XB4bG7t48WKr1Xoc+BBkWR6aJMA5BilVuVxuNBroTwO0s+M45T5tDgaRYRik7sH8DI3veczd/UHphDJJszQnC7KuaIaqKorEiSwj0CWyZPebI4EEUlEUdILxl/6hk4exyu/lmqgiQgYN/eD8NKWf6EWMDoSkg5KEozxmhJUBuvbB6iigQ5GWZVmNRgOgcSTp7+UxH957hiYJ8H2BckM+AcFThD7gRaGuH+xRtf4BEiQf1zBA64hmOI7hRU5URFmTZU1TNFPVbU3VVXBN+0U5oijehcrz4U3V3a+MPQVZP1Tx+yY4Mt9Qp0gFHsUGeQw/wWPL6aOyD0VRQW0IsDqq0oC25HkeISMoDeQlMcJ3f8CH/dehSQIcZexMiFGCH1PTtHQ6DV5eVCOgSnhtbW11dXVrawsjeMtj7rn3qxPyL3y1WSwejKKu7WzHCSIYikxN3pi5MVPKFyte2FTkJa5St2VV1jQNgEq/hRSk4pA2wMuHPWFHXV8QhHq9XiqVBEFwXRe9CxDAYVmWJElApERRDAaDk5OT+XweWww6cPbXs8eMcJco6vd8Xnjr8+oPfEH4kS+y7/702vmozlX6vFGuG41GwVWRTqdXV1dnZ2dXV1cRMEVQFfOFZB+QY7Is27ZdLpeRrDzquR7Z74cmCcguw9IATSecKgTvUejtOA72D6AGRNEL4yCnC1T2Xr05KEkok3QhVySLpCarlq4jiqrbmlPzWpIBvYN23wD031EMhphjRooKUUvwBaKjgl9VByWsKArgKiilQIzOMAxUbx5bEkKhEKrMC4UCmG9yuRxUN2JTSCBomgZ2GaC50AdR1/V6vf7IVvxRNxqaJGCn96ETqMk0TZMkSSgH7CKyLOfzeeArfR5ZUCt7PXVqjUFJQigcpcq0ruiyIHE0LQicpHqF/ZzgdWlAhV25XFZVtVAo+N/k9fJw1EA/7N+DqRLsKVhYfiEHEjJY9L6l5EcgoJZR0X8MSTCcerfbRX1COBwmCCKdTgNQXK1WfVQFYMXIfBMEASFBeRNq3B72+Lzh9YcmCSDkgXVrWdb29jYcu5WVFYwjcA0AKjqOA2gKFDoAP4ZhdJvtQUlCLl80NLNWqcmCRHkdaRlJFQWFL1PlZrOZzWY3Njba7fb29nYikQDa/vViMESdACaVVCpVKBQwdHNzc0gqwyv1eWZBR+eXDUDIwfJyDEmotrzuUqFQCFjUUqlE07TWr+uQZRkRDli/jUajVqsVi8VEIsFxHCp7ICpDrHr1JWRokgCOKrhxPM9/61vfUlUVjUJu3rwJJhxAuFBK77f2aLVaiI4LgjBAnRCJxstFUlf0imn3OWdMSRUpjmR51jCMV155Bappfn5+bW3tYBv6Q/Lgj+wjPgEShGGYF1980TTNS5cuBYNBdIKDq+rXygC/XSqVQAgJNATIWo4hCe19rz4BdYXRaBSo4XQ6DTcARiwqqxRF2d3dnZ6eJggikUiEw+HR0VHwvgyRE8SfpqFJAoqYgbvWNG10dFTX9ZdffrnRaFy8eNEwDDAa0TQdi8UWFxfHx8cnJibm5+d9LnLbtr0a2vvMrB3lMUdjidXltfEr46OXLt+8fj0Y3KE5yqqasiqn0+nR0dG1tbVkMolekQsLC4cEwH/pj+wjPkHNk2VZFy9epGl6fHycYZjJycl6vY5W1plMZmFhYWxsbHR0dHx8PJfLIUwHNsFje8wtr4zZ85jRXSqbza6srNy4cePKlSvT09OLi4uxWAx0zhzHTUxMLC8vr62tXbx40bKsubk50zR96shHPGKHbjc0SQByHf4cmpPmcrmpqSmGYSYmJhClqdfroHhJp9O+p9VoNLC9SZI0QJ1A0SyiqKqkWLpu26aiy6zIsDwriuLk5OTq6urKygoYobe3t/2lf+jk0Pg+ypflcnlvb+/SpUuWZc3OzjIMMz8/DzA5nAQU+iFYBAI1jKRlWWAIPoZOeH0UtVAogJEEz47yUdM0OY5bWFgolUo3btwYGRlJJpNzc3OqqtI03Ww2H+VA3fFew5QEnxC7XC5fvHhxdHSUYZjr16/v7Oy0Wi34duDGEQQBqgDeVblcRhTifnFHgSffnX/hq41i0a17WFSBZ2aX5hFFLZO0wIkSJ3EkwzOMrimGpYmKoOmaqqozMzNTU1MoSD9z5kytVjskAP7LO47yI/glAgw7OzsXL16MRCK7u7toSw5d4TeVAowX5VDwHGAjgTX+GJIAnZBOp8EQTBBEJpNBwRpubRgGSZKoOZEkCf3yqtXq2NjY5OQkSHQKhcIjGKK732KYkoDtCph1v/E4NClN047jwIg0TTObzYIYGL9BBNDrOHifuKPAk+8mX/p6iyTdRtXttVmWmlmc2wjuJnO5ZCrD0pwh6woviSyrSIKiioLEKYo3gAzDABhSr9fRHdRf+odO7j7cD++viEuiwgn9EdvtNn6JdBvws8jmqqrqOA74cmRZdhznXnTC9z4r/uCXtbd+UfzR57j3fHbjYtwUqt36nmceJZPJjY2N3d1dVKsBaAxUtqZpoLhTVRUtVZFphmNzsEzl4Q3OvVx5aJLg91RGoAOuM7jg6/U6yjtIkgToCNUnAAu0Wi14z54k3KefEHjy3eWXvt6iSLfZlwSOmr4tCSTFkCWKLlICxco8r4iCqoiq5pW/o2ulIAgw1fzOA4dkAC/vZdAfxntwd5//FCkF1JT6rIGIWoKDEQy+mAXDMMB3dHedcEdJgHUUCoWWlpaCwWDxdmdyfAF4zMhgwFNHawUwyKOsGbibhzEm93XNoUkCQstgMMdUIWOF+mA/e4UMA8dx8/PzU1NTCwsLTP8AKmmAkrAR2FpaWN5cDRQzOVUUVUmUJV7VJFH0+pNDfcmyjLRRqVS6oxgMMYrKMAy0KKgrUOUH5QnDCR09SJJcWVm5dOlSOBxGkScWKyShetcc8x0loe0RBN9iCM5kMrlcbnV19ebNmysrKwRBCIIA2lO09oG7gpJDCABILN/UaAtQZPqwBcQxUIYLqCngk9DpCEgDOtZut1ED7fV5v08E3l10ApHNp5OZQiYvMbypqqamaqqkG4ppGsD/IasA7fQ4dE09tOEVCoVarQbkgiRJ4LVH+vJgmhlsKzzPZzIZ8G0i9wxJqN2/JPge8/r6eiKRoCgq2z98dYQZRPJb07RarYYcAoxMFC3Cezn0RI/45dB0AjYJbF3YJIDAQy9hbBg+JyR2L+wfMIXhjd1vZu0ukkBSjMhLqqAIlAfTkXhOUyVNly3L9An54C1QFAWC+zuqhUc8f/7tUKHvp3UVRclms4hJYHihbIGlrdVqAJYjLFGpVI7tJzQ6nlKIRCJra2uRSARcB8iH+s2CeZ5HTFwQBDDe1ut1iqKQU0LO1H+QYZ0MTRKQLcZWAYVu2zYY0dAxEnhstFDwzV/gjgBl8QACg/MTQuEoTTKmYmiCLHGcKomqIgoiS5Ie+ZemaZOTk5ZlBYPBlZWVO8oAfjmsiUTvTdQwKYqytbW1urqay+W0/gFIOTKSVJ8dFXxNgFo8iMdsVj0OvGQyub29DV7UTCZTLpeBsfe4lh2PbRmaB50TAKMMBALxeJzn+UqlMkQ+WX++hiYJCGiAwILjOEmSLMu6fv16NpudnJyE4YhIEcILPlGUbdsAWjIM06rW7yuzdhedUCyRHMNromrKmqEouuJxxgsiWyoVRVHc3d19+eWXBUEYGxvb2dkJBoNHCYM/so/4BHg75AdUVb169WooFFpfX4cbgIoOmCW2bWNj9r+hZVkP6DEHg8GFhYXt7e18Po/AEeYUKAFEOEDINzs7e/HixUAgsLa2Njc3h63tTV2fAHCioiiITmK5f+tb3+p2u+fPn6/Vahg+y7Kmp6fn5uamp6cnJyfn5+cRiYNxNVidMD+7cO3y1RvXJlcXFyPB3XIpr+mybVsEQVy+fPnKlSuZTGZycrJWq01NTT1uklAqlRqNBkC7iqKAffrmzZvAk2uaVigUlpeXx/rH1NRULBbzPWZVVY/tMft+wtraGiiBl5eXp6enx8fHb968OT8/n8/nkRVlGGZzczMajV68eBEptrm5OZqmwS3ri+WwToamEwA14TiuXC5XKhUETMfGxrb6B+gWgVjEfoYYuWma8LRM07Qsa7/duV+dQL78Ypum3FbNyyf0o6hgeSmTtCKptmbpoqJJkm3olqnJCvqUs+l0+utf/3qhUBgfH19aWopEIsOasKPuq2laPp/3I5UjIyO5XG56et8VDYEAACAASURBVNoHn4LjAhULPmGUb5cCd3T3Sp23PKd83xdE1Ce8859XxjJVqb7vR1H9njrlchlQGhSsAUuPfS0ajW5sbLz22muxWOzmzZvQCXBmjnquR/b7oUkCKgyRL3Mch2VZlLRubW2lUinDMKrVKiidofFhSvqV/sg/HCezdoQkZIgcS3O6pHn0dxwnCzxiRzzPARGQSCQ0TYvFYpFI5HGI+h1aIsAsYMQcx0mlUjDHsfQRPvJJggF1ud+K/rtIQiQSWVlZCYVCPi8qrFnEBvEv2DckScpms/AJd3Z2MJJvaiwqAqYg8QR81ye683kLGYbRdR19qMB+B3lANaAoigPUCcUSSZYonuI0QVa9HB4rCqysCCzL2LaN+iFMG77noYU49Jfwu8BdiexHJpNBATEMOfTFwrYyQJ1wFN8R8o8QNqRZELZCpS5oBWmaxsDClR/uGA5NJ6DW1o+vgQEbRWp+1AjIXnT4Q0Ub4NCQDUVRjuEnHGUdUTSbSRFEIiMxfNWyKqahKqKsCNWqh0rAd0DYG2Hc4U7b6+/uOA7a0oEuG1XzaAgEnwryLIpiqVRC9/KB6IRmv8kU+gyFw2H01Ekmk+FwGHYsy3oQRvBSojzdx9EASYAo4uuf6BH/ZmiSgKmCAKBYhGVZ27bz+Tw4DGHXohZWVVV0atnZ2SEIgmGYXC5HkuQx8glHScLW9u7SwvLqwko6muAoymu8ShZJqliteiwbAFdaloV4+SOepHu5nR+EoWkahiVEAgEGn0ewWCzGYrHt7e1jcFvcxTpKJpOBQCAUCqVSqd3dXZRG3FESstlsvV5nGAa8qJqmocz6Xp7xob5naJLgd05AdhnGj897DtkAlBftrJEuBQoDiSHTNAerEziGVwWlopkVwzA11dAVu2KUSkXHcXBfURTBeovfPNSJud+LA1KBpq4A8CITf5ALFf4xOnAOShLQSSQcDq+urobD4UKhkOkTtB1lHfmEwXAF0ZrWp4G536ce4PuHJgkAKqKm23EclC8DCwBTEkoD5+AGxr+YcjBc1G1nULGjUpmSRcXWLENSBYZhKZJjKY6nKYrsdDpArUmSZJomTdPtdnuAczCQS+3t7bEs63chgiGOQigIA3JblmVVq9VGozEoSai1u3t7ezs7O8vLy8gxQ38e5TFbloU8qaqqYDDhOK5arQ5kEB7kIsOUBJDhSJJULpevXLlS7h8XLlyIRqOosoU7hRZmiDUBjuoDVAfoMafSBEOxCi9LDC/zvKVrlqkpqmiaRiQSuX79+o0bNwRBGB0dHRsbexw8vEOzjhKOXC53+vRp0zS3trZOnz4NhhWfKxs1/hRF4fd39BOo21zZ/2ufK/sHDnBlv+U55fufFd/aZ3l51z+vXMlU5fp+303watZQx1woFFDmCqsMGxn6hmmaFo1Gz58/v7y8nEqlrly5sr6+rmma4zjguj30RI/45dAkwTA8ZJtlWSA12tzc5DjuwoULnU7ntdde82uX6/V6Op3OZrO5fgvaXC4nSZLfBaPX2rtfnUB/8+UOy7jtuttrczw9vTiHfEKGyOWzhVK2WM4WSrkcXS7JEm/ZuixLxWLRdd2bN2/u7Oxsbm4Gg8FYLPaI5+kNb+c4jtc5t1I5c+YM0pGCIMzMzCDxArbqfD5PEATo+BGFg9Lw+zHX+92lfvPpmbc9lfkvzwo//GXRl4TvfVb4wS/rb31Oecvnubc9S7/3s4Hr+ZZc7UESQqHQwsLC1tYWuC2KxSLZ74CYzWZBwaTrXnsiSZJqtdr58+fPnj3bbrcnJibAoIP03xs+40N9w9AkAS2sGYaJxWL5fH59fT2bzb766quapl25csWPz7AsC3QDGJjj8TgcLOSkj4FFPUoSEsl0aDe8uRrYWt2I7O7mMmmaKnE87bVSkKRUKjU1NRWPx7e3twGYeaizcoyLB4PBjY0NjuNOnTqFFuWlUmlychLGpKIoNE0nEgmwjq+srNxREmr9TiK/8fTM257O/OdnhR/6sviWz1M/2O+f4EvCDzzDve3zniRM5VtKtde+Xce8vr4eCoUIgohGo/F4fH19PRAIwHNATQJKczY3N7e3t2dmZjRNO3fuHPqlDxHN7g/10CQBOTWEusvl8vj4+Orq6tra2sbGxvj4uCzLiP1B6YOdAVHwgyTj98v8FXjy3UdJAsPyDMVyJCuzgqmqjmXalm6YqqLImUzma1/7Glpqg/X/ccgE+VOIE8uySJIkCOKb3/xmPp+/cuVKOBze3NxE7KFSqaB3ow/IG5QktG5HUVHhXSgU0uk04ntopQf/BHV/hULh+eef397enpub29zcvHTpEpT/42BtDk0SgMUVBAG02Nvb25lMptFohMPhZDIJUl4selVVfYglDADsc6qqHiOKepQkpNJEuUgqvGwpuiZJIsdyLMWwpKLIruuGQiH4o/l8nqKoWq12aCEO/SUITzOZTDwe5zgun8/HYjGsRaSWEZ3D0KH2CFUfCIv59Qmk696XToB1FA6HV1ZWwuFwuVxGEBxMzwiBiKKIykSWZYPBIAqzstks/HvgaIY+gEOTBJIkbdtGrbckSbZtAxcATVqpVBCNBnYFHIYsy1IU5YPMNE0boJ+QyxepMi0ygsKJMs/LAq9rMqKoCEoCxIaI1uOgzQ8tHeTj0bq33W43m01UeiCh5hc8YRWi8GOAkgA2yO3t7Ww2SxBEuVxGEg1lJLiRYRiYZTjTPM+DEZ0kSSioQ0/0iF8OTRI0TWs0GqIoooYDjgHI7VBp7hdMwucrlUrlchktrH3NPkBJ2A2Gw8FIMpIoZwsiy2qypMiCKHG2bSUSCV3XO52O38DvcaixOrRQEIhE0wlkxAFqLJfLFEUh0QtsSy6Xg7oYiCTs9as3gTva3t6OxWJbW1s7OzvFYpHjOJTzQ6XjC6MeSxCEVqvl4y8eh/EcmiQgywMgHbqqiKJXO4/IKUYNmUiIBNrqwGNGAs6yrGNk1o6yjuKJVCZFkPmywokVw3AsU9dkUeIYhgbIHl30HMeRJAnSe2gtDvelIAgEQdi2Da2FdIFfnIAViVI7pJn93eQBrSN4zKhZCwaD6XQaMxWLxXK5HBDHUEToGKJ7XFI2iLsxj37l+nAHcGiSgElCogryIElSqVRSVZVlWdM0AVAFuNKHMXIcZ9s20Ga6rh8jn3CUJNAMx7OCzEkSw3MUxdGULPG6oei6ZhhGsVgEBQEYgh9DPwG0QuD0RmgSHIyIPaBuBo8AMNKgJOGgn3Aws4ZcMsDYyGMg3Ic0HzwZqALM5nDFYJg9dbDEq9VqsVhETa3jOLqukySJ8iuwUyGvDAgXKOYlyQvwI09ZsypH5RP0J96lvO8d6EKrPfFT+vveKb7n7RtPvIt/9VtdjgXLCy8wcyuL67s70XQ6Q+R4VtAlDZIAP8GjPBJ4eHuozQXb7uOQCTq0dKCpqtUqSZLYX4DE9n1WlC7AUEHx2uuZv44RRW3265gTicT6+nowGMzlcqAoBtIJYQY46+ClBNajVqshjA7mJaRNDz3RI345NJ0A+iBd16vV6sbGxsTEBAoOwacJgq18Pm/bNvL2SIjCzfKV/l1iR/crCWWS5hhe4WVdVExVtXRNUyVBZHVd43n+0qVLFy5cgEZC54dHPE9veDtUfk1PT58/fz4ajS4tLV28eBFV85VKpVqtItIAUxP93pHIh7GOiv5jSAJ0Aqo3d3d34c4BYgxVgJIS7CDJZPLy5cvj4+PY2oAlexxCqMPUCdCVKMoBVVsgEDh9+nS32718+TJicIIgWJYVCoVmZ2fX19fX1ta2t7exqWBXu4ufcL+SEApH11bWZ65Pz9+Y2d7YyGXSAs9oulwqFQuFws7OTiQSKRaLsNwOOjNvuEYfzRu63S7CNSRJzszMLC4uchx37do1LH1JkgqFwvb29nz/WF5eviND8LElIRqNbm5uJhKJTCazsrJy8+bNQCCwvb29s7OTzWbRhV5RlKmpKYqiFhYWoNLhxwOA9GhG6S53GZpOQCGYZVlXrlyRJOm1114rFArnz59XVfW1115DAgixP4TwAWgpFAp+/z/DMAYoCSTF0CRD5sslIs+SpK7IpqGqmlSp2ARBLC8vb21twV9vNBqQw7sM66P/0+bm5uzsLE3TFy5csCzr2rVrtVrt8uXL8FCRVoMFhZG8I2v8sSUhGAyiejOfzyeTyVQqlbt9AJQKy3Z6ejqbzU5MTMD0hS/xmAzm0CSB47hWq8UwjCiKc3Nz3/zmNxcWFlKp1LVr12ZmZhBphhUEylRkjlA0A8oq27bv4jHfr07I5gqSIJuKIVAsUy5LPCcKLEkVDUOXJGlycvLatWtgOHw8a9bQFOell146e/bs1tYWCOJRkQMEnnT7gJTesZPIMSTBr+hfWloCtwU8Peh8QF8BFJBluVwuT09PX716FfWciCa92SUBNiKyae12m6IolDIhd2YYBjgR4K0CNIaMPcdxhUIBebdOozUojzmXL4q8ZCqGwokCw+iK7FTMas2macqyLET6fHK+x4GV5JDaQZlHsVhsNBrdbhchIzhj4O2D64zy+Wq1esfuUseQBKfR3t/fTyQSBxmCUVqIIltMNGK7SHRgrsFqAeUA2oFDT/SIXw5NJ2DPEAQhn8+jASNISlDEjHJbnxOq3W4jWwliEvhbXqXO0VzZ96sTEsl0JkUINN9y6u16XVdkjqUEkW02G7IsoyIMMPJKpfI4sJwfWigkSbquixBzuVyWJAmZNQgAQBZ++AsNppBZw0Sg4+AxJAEe8+7u7tzc3NbWVqFQoCgKEFdQ/6PtLAKmKNSsVCooVfNxlo9DLG5okuAvL9SUkCRJUZRlmhIv/P/tvQd0HNd1N67849hqFBtIkCCJ3hZYYFFIsKgXl7glju24xl++2Pkc5ziOZVuyGkmRBIlOkFTvltUpiWIDid57X2B7nf6mbi/Yev9ndiSER3HhOYlF0OacETVYDDmz973fu+Xd+7uIokVekLuDc6wv4KMRbTDo+/v7+vt6R4eHaYIkcQIxjFzHnASIAkQTsOQd3vvQcNUOtryKKc7jVdkudR5fmkOW5lDl+Vx5Aa/OT0VRC8mXfxMjGAiGIR5nSKKrt3toYmxGvzA8OX667dzFjnaz2SxwHIlhDElGw2GH3e73+zEMU1YypcZqJeyJfgwJoigqzUGU9VUpWMNwnOE4jCSdOCbT0Xk9DEWMDQ++9/abNpOBJnCeQ4LA+/z+BEAc4COG4I6NteYb6rm0o9yaemx9E7muiV5VT60/Kq5r5tfUURvqSdXjY+dNEcGXSKWiynlZ/f39MzMzer1+ZGSkr6+/re0CwyCaZux2B88LDINIkkJIXlMUOnslHGI0GhVP5mNf55P/8YohQYk0K5mSy60snTa7n5dom1NErEsSnLiDd3GegJsXWYFHFOZEOO4TRDcn0ATpcXmSAHJFuTyGfuOBA5O33k5qNGx+VkCV41VlCSWZpDqL0OQxlYVIU0AXZQ2XlZqeeBm4JbnzcARoG9Z2/tzU/NSMaX6BMGoJ0wJhNhJ2J0lwDOthXQHB4/f4FAoGhXtP6YGrLL1KzaFCyKcojSuYP6NEhxQyhOU6Zl6SCF4keJEWeE7gJAF5BSYg0EGB4jGLi8FdHM0iWnS7Q0kIA7gBLHG46/HutIPYTUeXbmnkb6knVtU71x2lVx9Fa1r5W5q5tc1Ceou7YN9Um27JH4B4FOKR6PDgUH9vn3ZOOzI0YjZbJMmNEIcYuWejcrJI4FiR50WE5DaESgMRJQFJaUP4yU/9jz3xiiFBmUyKF+dwOAKBgNxqVpS8iA9wopvjKRInaZxgcE5iKYYQeOQWOJ8gSAxicJKhGEF0uYMhKRaHeAK8PvP+x4d277KoVXTOlnBJjk+VKZRsI9WZuCaXrpKRwMhIKLO98BYIcQjJyoQnmK7Ojmnt9JxlwcBYzYLT6WYYryC4JIEVeIxFdoom5EQxkiQVG1fpD72s5ZUiUsUoVyjRPybfT+xHiqKU7r1Ku+9kMimzDHo8lCCQokByiJIb6joZzIocJmQ3CoTdw1JunuFYWnBJwXg8DOABIAA+XzuYfpi+uTW2qoFfVYevqrOvayHXyGBgVzWxa5vFDTISpi/olgIBkNVyEsZHRvt7eg2L+nm5caOdxEmSoCkSIYbnOUkSPW6X3+MOeL0BjuPD4bDX67VarQq5t8Kd+okJ6vc96IohQQnMKxUkPM9PTU35/X6B5RamplknvuTzsQzl8khmm9mO2a12C2Lk/FC5NbkTw3GCFUR/JBoGkCAeT0TA61rY92j37h16jQrPy/CqstwlWVzJNkKdSWhyUWUhV17AFmSNqEstr7weFgOyGkkAQzPnL14YnhzTmnRGu9nitNoxB0kSLM1IrODl3V7R47Q7w+Gw0om5p6eHIORWnDMzM8pOFkmSFEUp+TzLifi/T9Z/0s8VKmW73W4ymYLB4NzcnFartVotvIh4keEFhucRzyGORTxCPGIpguRZThR4jmUkF78UDSUg5gNgAP62biDjMLa6Jbi6nl1bh69rcG4+jta1UGtb0JpGtK6R3dTMF+4da9OHfMFkIpZMRqPT4+O9XV2zU1Pa2VmnzUbhBIkTNEkjhuN5ieMlBgkkxWE4TZLU4uKiwWBQEi4YhjEYDCvB2rxiSFACQUonkbGxMavVevLkye6uzsnRka62NgExJOYMhQIen1tyS4LAe70ekiRwHBckCUmilSSdHOeKRQNyI4sl8PCz+37dfUeNoaYMK97mVmdL6iy2NJNQZ5HleWxFoVBWIORnjalVppde8spESfEkJB0U8f75s10D/TPzWgIjeYr18+6wyxd2eRUDbNnp9Hg8Ssrxyy+/PDg4mDKFP2TMZhhGcQFZlhVF8U863f/AP2632z0ez/j4+IULFyYnJ1999dWOjo4F7azAYiLnFDhC4BlBtpFcnOhlJb8VYyhW5EQXx/Nej5iMBwGCoZRO+OyRnoxay9oW9/oGZmMDmdFM5jwlpjWSaU1obQOT1ogympnCvUNn9AFXMCmnoiaTVpNpYmR4cW7WYtBTmIN0OniEJF5wS26Pxye5vAwrOnHGYsM4XlAqnpXWdUpX5pUQi7tiSFDSjZQW1iRJvvvuuwMDA2+8/prP43r37TfdosDQpMCzNEW2X7zw0ksvnT/fdur06a6+PoPdRrkkp8gTXrc7GV2COCSDEOAXDz7UfkeVtqbEoc727Sjmy7KZ0ixCLXvMvKbIpS505WVNlhZSb7zsRY54zBuHCOXmeiZGB8YnJybme873drzTduald049//qFt09NDo9gJOYL+0maFEVxYWFB6abT29v7wgsvhMPh1157jSRJJa6q5E0t89D8gfn6p/sVhmG21HHs2DGGYc6dO4cQOvn261E/G3LhHGUxGxfGJiYudPW/c6brt+9d1Dl5B+tFLh/vcgUDHpDtRV8k1Unk3sa+bUeMG4+KG+qp9Dp8Ux2WdZRNb6A2NDDr6pi0ejqjCS/Y2/u+MciFYSkO4WDYoNMP9vWNDg5MDA9ODPb3d1w8/e477efPjQwOLS7qMJxCnMRLfsHlN5mtS0tLg4ODs7OzJ0+e9Pv9p0+fVmJNfzrhXM6/fMWQkEwm7Xb77OysXq/X6XQej+fs2bNvvvmGxyO98/YbPIecdqvDal0KBl2CGPQHBVFieIHgWELk2YDXFVvyQtwfX4JEECJu8NCm/b+8sKtkuiLXps4K3lrOleUw6hyiNI8qKxTKi12lha68zJmSfP/bL8VJA4RYgEAYlggXb8LI+XkzsnIuixCySRHcHaQlCbEERzpYnBNlbsjh4WEcx1966SWSJJUi4DfeeEMhYlJGUSm/uoIVPArlllLf9+qrr546dYrjuPYLZ3nSLFImnrGziEA8TwteSgwRUsRIuHAxxPujUiAUioRTMbhQEMAIcHvLYGaDcfMxYWMDtaEWW7/fml6Lpx+hN9Zza+u49fXMliYsb1/vm5YoHpUBJMcskiCKkt1iMS7MW3VazGwQaUJElMixoiCwnIBTnBVjTHZiZnbebDYrG+HvvPOOJEknT568gnJbBskVQ4JC1RYMBjEMm5qaUjj1x8ZG3zt18vyFswG/N+T3eyXJ7/I4LXbMgbk9PlrgbTRpZ0jkEQPxpSgkIBmBJS+4GHDozP/5w97txbqqAmvxVq4sly3Lo9V5RGk+VVbEa1SSulDMz9QW5/iOHQbdKAQoiLsAQhFIuCNRCnlwI+KNgt8ihZwuPy0KLCIEwsFhS7Els9ksSVJ3d/err77a3d3NMMw777wzMTGhbGsoCWRKDcMVtI6UyqfTp08rcJ2cnHzrrbdwzCHxpMTjIk9xHMPyPMNLFO8lOB8lBqVQ0hsDbxQCCYjIsTRAAL0JKKnt3VirzTjOb27h0+vRhoP4plo6/QiXVifcckRc28BtbnRm7+9/wQa6BKCEHIdbAogBCKILdzhop93HMzzpFGhcQBTPsRwvIsFNC15a8HCC9MYbb7S1tQ0ODvb39588eVKh+F6ekVfq4oohQYn3KXtVSiNU2boQeTthj0HU43E5bTaBRkG3z81LPo9fcLkcFElyTFxONooBRJMhHwS94BbAZoSBTtN3/n6qupjeo7EXbDFtWcuWFVDqAry0kCwr5jQqoayQL8jUF2XxP/sRDLaBC4MggpgbIBIDWIoBaRMEu8vrcAcItxdJAs8SIomJhMVuCYVC8l6H2720tKQkDkipQ+l2pbAzKJ3XrmBmnqKaOI6LRCJK6Z/T6fT6vARN4AxBMiTDMqnsFV6WsuD2+CPhhLyie+SoA7gAeAAdwCsSrHuo/aa9U5uOsVtOeLe2erc2ijktnvQjwvo69011nlsapfQmPOPx4WMYjAFQIIOBjUEghaVgOMqQhMOsd7GkhAiBkfv5MoilOJHkPbTgESR3OBxWsu4kSVquPLlSAFh+7hVDwvIbXHqBOOSkMYqjBJGT899olsVpjpJHUHS7OZeQhPhSyBt18xANQMgHHgkGB20//vH7RQWzO6sMZYVEWT6Rv1VQ5+OF2VxlGarSEJpSR3GeUFlC5GVwO9S9BZk9d+4SGx8HxyL4WYj5IbaUBIjHIBoE2sZSVlpgeIalkQfRbobh5Al0lR40xzs4EXN5aLeH4XmaIlgS83D0ktcdi0RjIC/nVAwcKZqjF6bFLzRduPGn7+Q+5cg4QVx/wLK6nktrdG2oZTYd5tYcYLccj61ujX2mTtx8nM1sXMh4+Mzuw6dfN0ZNCTniZA/L2xFhWc9GJYEl7CaOtLt5xiVwcm0QhTBGoHk3YvmVKcwVhwSMISieFgRObvFEsRyBUlpdoFnGF/CE/BJEfBDygEcAl2irr39TrelTl+tqduA11bbCbLG8KFBdKpYVilXleGmxs6yUqakyF+aQ5QVY0VasOJOoLu/OzDhbXtz+9S/B9BDY9RAJxAM+JS7u84Q4VsIJkqBJ0S/SIo04tDJH7nLeiuIEC++xuoKY5CU5jqFwicaWRBpCnmQ0EgHgE0ADTMXhGyd6bj98MefRi5nHrTc3WNe34GktTMZTwbX1YmaLtOkIk9HoWl3nvu6A+Dd1rm1PuzY3Gtbv7S9rGNq99/0H39WNBgEDwBKyhgnLAWpgaYKnMYkl3QLL8xzJIJzhaV5CbKrV++W8/Sd7z4pDAoFImmdEgZdYXqRYnkIiJ7hckssjyuo35IKACB4enFbzvr1n9tw+ptmuK1Y71Gq8uADL3coWZQWq1e4qNdKorcWFxuJCZtcOQ3EOXlGEqgsJVaakKeGqK+bKS3t3bX9hhwZ628HFgsRCPAKQiEPSHw7bCcxB4F6/l6CIT3Y4/pefRvKiSfAZxaBNcOMIcQzu50nwi5BYgiT4k/JaPhmBbz4zXvjw+TU/P7+pTp/1m+in6qnrD5oKXwxcfxBLaxY21DrW7TOl1eIbWtw3NAc/0+RJa6Y2NVo3Npoy67W5D7dXP3ru7oPnLkiybmEBvCkzye/3iSzF05hHZN0ukWERiVhWvIaEyxtixLEkSyOeFXlBYgVRqSCTJK/fk4RoNCRC1A2cE5wm+vF972sq+1RlzJ47nUUqa9Y2T5XaXVEkqHOx/C24KtdSlBf83H1EzXZsR5W5rAirKqarC1F5Dl+YzRXnu2/bPVNeOvOF+w5uTvO9+Rvw8jLAlryxRDgCMRzRDhz3ur2EE1+hK9jlyZPiBKvgNQleK+JxxIgcveQRIBqCZDIKIAIsxOCLdW0FD7UVNekKnuHWn5A+1Rq47gi/qZXJf4pb10BmP+UqOE4WHHVsPGRMb2ZWHfWtfSKYcZRKr7emtdBrDlvzmy2bHuhS7++5p75nKAqTPhBSRlcMwO3iOQZzi4zXLXAckrfZRHHFatgVphNYlmYR4jmRF0XECzQn7/V6PcGIPw5BSHrBT4ObXLj/3zt37rDtucNRWmHIzEJlJUhdELlzO63OYipyDfmbnBVF84XZsO/R+De+bqnUOKvLrWV5xsJ0ujzLW13MFGWh0sLFnEz7rbt7qyqeLMyB/nbw0BAWEhFXJBniXILDibuQS6JFHl3FWGA4DhdEB8djiKFZxuMWo+FQMrVmCwA4wDdb2tUPnc09NJV9nPl0Lf7po4HrWuPX1XvUL/lXPzyuel5avX9+y4HxvCOTW2unVu2due4RffqTHtUzbHqt8ZZ65oYj7Gf2WbY0OUtbrZrDo7cfbDMC6EOyjRQBCAb9IkdKHO4SaE7mSqA5fuUKc8UhgZGDboIorx6CjARe9Af9kUQoFBEh6QLWBBfffa4gc257tVBWFS6rlsrLmPIiY84GqiIHq8x0VmdrizfbdpYOZKbDS8/Bv/xffbma3F0tI6Egnd2eZ85PC96mIfK2UPnZtLqU2L1r5q7b37ljJ+gnIIQg7orEPP6gD3eSrJ0LCyGeWaEe3uVpBSS3ymJJxJKiyIVCwehHmXY0wM9eGd/+8OmSQ2PFTzLXeYPORgAAIABJREFUPWK8+YnwdXX+607Ap1siGw7ot+wb31qny25aXPPz93c/Pb/p4QsFxwy3HLGsa3BuO7y4Yd982lHvpxv8a56MfrqWzD7BZR+aKX304v3vW5wApJLYlYh73RxLWSnczNJOjqV42elaoVphZSFBHl0uxfnCSiIjCIzgEt2BcCAuLzF+SIjAm1tuLR++51ZDcbF7S24suxAV5TrLcrCqHJ1qA39fmakme64yc6x0W8e2DfD808l/+p6hspzas92hKSA0OagmX1e60Va+lSvLCVeq+awsoaTUsbPmtLrIeujXgMwQEyHmAUggknPMO72kV2CEy5tzK/EujqUkziGxVhePBXxSNJFYTrM74wTVv71Y8mj3Ha+6rvvl1PqnQrc8D391Aq5rgL9pCKfvnd9xwrT10OS3epLfPc8eZ+FLb1r+4WIw5yliQ725oE6b/th0Wov3+tbEZ56ANc/B9bWU5gUp/7HeLf/n2LuWOEoleMcBlkIe0mmwGmcp3CJyFIco7hoSLnOmcDwv8qKLlQRGRKzIu9zhSEgOSCTdEEbG1gMf3FUztUNDqUujecW+zVs5VT789F/g6P6pyszZqi3DRavp+yq0lbnDqjx44kTsm98itm/nqsochVvJqnxd2VbnfRp473mkzmMzMyIlJT5VCVVSqqvZ/nJJLox1wZLi8sVcgnthVEcYKP5qRgLPUl7O7mWtHpEKh+QihFBq30CfhK+0DFYcGl33wODWJjz3ucCnDhE3HPNf3xpY1xpMO2D7x/fcpfu7i1vNX+uAF/3QBvA2wI8m4OZ9M6pnua+d8uc8NnTLQ3ObTwT+v4bAjU8kNj4RuPHRhbwj2ttapj5fe2YxLm9QyFmOUT9uXdRppzCnlecYhiav6YTLBAJiaIJHjCQvHzztD/jlBLu4HDYN82CaekddaN2z01xawJarRFUBystyZGc6t1fCC0/BK09czF87XrgG1eRhFfmGmp0TqsrZbUV8SUW0pAhlbqB2qc13bwf9iPTtL9PqkiVNBZ2d5VaXRLbvoMsrxis14//8bRAsEOcBluKJpE2PTQ7O2iwya6dCFsTzcuaFUhZ8md/nyt7GI9pFOxBuJWk6GE0kAdzhuATwmi6a/evOjUestzSgvzmE33zQsrGJ2NDKbaqz3Naq/adXtF0B+Oe3TTc9PJveSN71rKEf4Kvvu1RP4H/1wHz5i753Ab71uvmu5rGi/WMZLeyaZmlTM5vRRG48bM+tNxU83Nk04hNTsdSIl4eYf2R0dMFosWIkxfIopfQFQVA6KijNtpcZ+66guFaadYQYGhdZxiVXePBkKOiVUx1jEHCBD8Vff649JwtXqXhNCVOaz1YU0WUF4Vv3GIpVneXl8OarcPjX5poCS0kGsbt89o47OzU1+lvvJWv2MPmZqDize8saGG4X/+17k7s1dLkmWFFFF+bTBbl8Ti5XpDJrKgY/ezdMd0NCAAjFkgm3EBjpm7SYbApHvEK0obD3rITcycuZNDxiXAwhMCQrukOpzfmlVErFA+8bMh+fvKmeuelEeN0zkY3N1Jr92jUHdIWNi/c29ff7YVSC757o0DzLXvfzseragfeCcOeztrUPjhQ+waqPOd4NQR/AHQfOVRzoS9u3sOqgc83j5m1HUd7zS0XP+df/avDLJyYsYVknQNgDUf+sdnFywaS3YqScDy53ChA+Oq4h4feNI2IQwXOMwHAMEpiAnCcMiRj4XeBB0z/90URVBaqoiN6+mynJw9W5DlX2QvpGokyjr67pzc2NfutrxuqS8dLs93I3zfzwB96nTpgeuL/rC3efyd+MffH22Turpu+p6dtZMlFd4ihVYdlZVFEery7iC/J91dVY9fbzFWXky8chwkHcG0vKE6e/c9ig+7ArjJIlpiDh9739Svtcrj2QXQUmGAwp9ZlBgDkP3LP//bJWy7oW/oZW/6oTgbRmOv2IqegEftcb0vNB6E9VKTzT69z8yw+27u//QmN3ZwB2HRwo2ttffHjwh23SIsBwBM4D3PVbPvcEW/BccFM9vrGeSGuRthyTNu+fv61usMsRlccuGYVowIGTg+Mzc4sGkpZTL5YblSuLyzJX35WV3srTCYjgeIZDMhJ4XzD6IRLc4DC9cdtO7e6dlKbcW6Whi3KsxdvMxVn+2/fgZeW6omLHnt26mqqBqlLtt78K3WdhYRw8DCA7CBi88/LrZbm9u8onb6uavrVCv7vCqi4yZ28linMETbFQWihoyugdNe2lqsGf/hAEJyT90WQEEtDXMaidW1BIspTyOoVYYCXkTl7OvOFYJHJIQJScvZ7K1vIAtDniRf/+Uk7tXFoLu/qJ0C0ngmlHuU115k17R9c92FP9srDlVxe/39zWw8NPOtxFj53/3OPvdXlg9752zd72H54mz0bgu0+OlP7HW3mH57YdJa9/ZDGjmdl42L7+sPOWBn59s5jV6FTv7Xl+iBTlwUtCNCR5/V39wxOT00o/B6XSWqGLVNKl/qK5LX7PQCKGJTkBIZ5nWNHjDclJELJOcIN27uVSlXZnDV6m5ooLAts1aGepY4fKXqm2akqxHeVjquzuXeVnvnQXICt4KFgSICLBkgTICSIDb73Wvr1iorJUt6vCUF2C15TzuyuYikKqNIfXFFGlhcz26unq7R989m5YnIa4L5pcSkaSo31j05Mzi4uLDodDSRZUxkwQrpqAEs+xiMQgFoRkNJwADuC5aV/hL97ddmB6XT2+qtV7U6tvVSOz4bCxqHZc1ajdeFTa0MQUH+y7p3Xwgzj8xzn3Z/e90xGAHQfO//AD1B2B77+ozX+krexp55YnvH/9OLW5hd/WTKXXWtYest/cIK5p8WxtYTb95/lHT84RwZTTHI8txeFid9/I8BBmt5IErtAcKeUcConJ75kMn+jHK08nsCQSESXwNCcG3KGULGPg90BX95slpfM1O+jqSlepKrhdQ+8qna/I0e5UT2sKDBW5xOf3/LY0O/L2K/JuccQrz2Y3JVcvhLwgcMBxxu99x3jHbvvuKn1Z/kzhFmtFvr1kmzU/HVUWMJUqSlNuu/W2k5oKGOyFqCcG4ZA3MDc+NzYi9wSwWCzLFASK9/yJjtL/4GGI5RgSh5gXEmFfFJwJONjNqfd1FzUZ1h62fqaOvb7Z/Te1RFqt4evvcs04rH54dluDveBgX8EDJ++uH+5eggffGBuPwL+8Nt0L8N2mC5U/eW536/iaX3d/6j8HDkhwx7uQf5zJP85sqCevr5eub3BnHJOyHxv90XNDBpcc/E6mdNHFrp6h/l67SYdjcgRCaRfGf3SsBB27spCQ4kOgkJzRK1CcuOQKyyQusk7wBF94+Z2ikumqSltZiVBYYNu8wX1vDff1u7H/86W5L9X4vn57Z/Ytv1XngX4BAiHwBUCuZkulzScTAcSB1wcvPt+Wu82oKQl94S7uczt9X7098ZU7qIpcS3EGrikg1CWOHbtOFaqguwu8KAHhWDBsmjcMDwxNTU0ZjUYMwxS1oFTD/A8m5yf3VxHL0SwvcKn880TAH5fz5H5+hlDtH8g8OLP2oHFNq2v9M9EbGrm0WsP3P+DfEeElO3zu4OkfPNX39aa2rx7t+kbjaTqVl6GPwgOv9P6w6c1v1b72lYbzP3hx6m0M3ubhvt9wNz0wkdtCbjsmrD6+dMPR0Pqj7rzahX881jvDgycmZ+NFATq7e4f7uiy6OcwhRyCUYNGygfQXXbP2O6fDMhIIl0Dz0qVICD3/cseO3frbbzWXFkvFRaa0NfDIf8C5V6Hvfeh+B75+h64888yOcjBbwBWQ6xf8fkhEg9GwK5VfIGPj1ZfHayons7fAoUfh/Zeh/Q04+Tx890vG4s1EVRFRojKWas7lF0NPT5K2JmAJEmDXWwf7BiYmJgwGg9PpJEny0kbRv/MrrKgPEctTrOh2SRB3Q9wXTJUp/9u7zuyHu7MPzW5usK1tlT7TJP31Ybrgae7hKRgAmAU4RUKHBKMAp0JwMQiWkJxUZ4lCPw/jYRgMw2kRLnphNiHfcxRBTqN9a53t5v3WzzR4b2iNrGqUsmp1f9/SM4aAT0WQIkno6e0f6e82aqecduvHkLDcVezKim5l6QR524WnaZFxCiwtupLBpLyeJGMgoMgrv32vpIz+6pcXC3OFwoJAhXo+P70n4+a2mz6l35buz9+C5Ww6lZ8D4xMQjgWC4UQi7A1KnmQ4BOD2BSAQYvY+Ordnh1FdPLll3UTxpp6tN/Ssvs5YsEG4vYyoLsZLVfiO3d3lVfD+++BhErAUCy1ZdZbR4dGpqSmdTqd08/6IXHSFpgx8bDIhlhe9IYHnYUmEiCcMQAL85D1n0f6B/CPz+cfpW5q465vdN7d6Pv3w9L1Pa98LwrdP8ZvuP7/t/ov5jw6s/nnbV39rHQmAMQ4dAvziA0fej5/c9K/Plx2eyXts9Esvms8A3PoSu/WwKbsJ23KU/3S95/qjS6ub3Xn1pu88PTojgSCXmUMoBp1dPQPd7fq5CZvFZLfbFaYjhfdW6b/6sTf/5H9ciUhgBAbnZSREg/FUUDomJ05fbP+gentfSRFWrRFVRe7SIos621KZz1SWM9lZ8dzMiFrVm5sXffIZ4ESIx3weFIegO+kLxEMQi8OCQffNb80UFemK8qwVRQsVOcSd5cT2fEfpNqt6m6l4G1aqcuzc3VG9A3q6QCLisATxxOz4zNWOBM4VYFleLvWO+ZZS4dF93ULug22Ze0fTDuiuryWub5JWH/dubSXve8H8/9r9W/dPZhxc2Pzw0OZf9/1TH5wBuG/v21NJ+GJTzxsSPNQXqNjfmfarvk2Pz1c/jd/6Ml/1vLDlsDmnmdjcjD7T4LmxNbyqntu2b/pfX5mZ5mTrKJaESBLOtV0c7usyzE9dQ8JlghxxHMXyDMmxNC8FUkHUJMTAw8Gi9tRte7pUBWRNlausRCopNKu2sXdV07dvtxRmBwtzg4WF3jvuezerCE6dA58nVZnpDiddkPQDgc38+3/qS3dQOcXG4gLs1sqJgs2OnSqmppiqzMPKsrHyAoe6RFtd3fu5z8HsRIx3xiACSejr7L/akUCyLprh5NiRnHAul2i+aoDsn75Z2jCfftiU/qR3w7PRGxu49XW2ssZZ1cHhTXtn0x+byn207f6B0G94+IenFv6h6cI5D9zV3LfrYEdvEO5/z1F2qLv06PzNP+/ZetCQf5TccNC4rdG5sYG6qcmz9sTSmiPk1ocGHz5lmmUiwQQsRaKhGLx3+uzwQJ9xYdZ6TSdcDhQ4FnGI5DkGsRzJCoI/FJFzLWIQFAFhF//+iwv33mEtLxHUKo+mRJu5HttZoqsqxG6tYKpKzPlZi8VFc7v3nN6zh21pBuMiCDS42GR3u+5Xv2qr3mGvrGE0lYsVKsOuMuv2UpumwKrKlNmQqoqZqlJrWWl3cdHCT38MuuklFxmFWCIB7ee7RofHrmrryElxBM3JpI3JeDQpF1gOu0HzizfKGmbWH9SvbuY3PBNZ3SKsr7MXNuk0LYs/GoIfnAs80kV2BeGLR8eqHjp/98GzvQA1TWO3H52u+cUbgxE4MOL79luWn43CrudQ+kHj6n2GjDr7hjp8dbM7/cnwxjqs4LGBY32UgVsKRuLxWJSTPO+fbRsaHDDqFqwWmRD6mnX0R+AgI4EmJJbhEUcinvD53JCIQAwiLvAj84EH+7eX2yvUtKpAKis252yyluU4bi0fr8o7rUq3/9MXlx76UXt1Xl+ValhT2Z6pXqj+Qt/m8jM3ZsyWVGh3VffvKYk9+m/Dt5W1ZaVRe6rZ7eW24iy8JJfXFKPKMmOZ+mxJIf98a0Q/FouIEYi73P6ujv6RkasbCQ6CwWgutBRLJCEaTwZBriz7xtGO0trRjUcsf7Xf8deHmU1PerYeR1sbLeWt+semYTFV439/68mCX75T86Qu48e/fS8CWx8eyT04Xd0w9P3fzBoBhiV4Sgf3PrOYcUi39pB9SyOxoQ5f2yxtbHVvrjXX1I29OecmvfFgwA+JyKLRfL6jZ2Bw2Gg0WiyWa0j4IzCQ/SeEOBJ3s0hCPMFwFq+bhkgYYhD3QBhB/9nfpq9ldm7HCnPoohypqoSqLLRVF+nu0Az/7S7of4/+8d91l220bi9AVRXOop104R1sZg3s/EKwrGIhN717RzZ88DQ8ecD4+dsMJYWEqtBelEOpC7iSIlpdsqguHfvb+2I9pyTLeBICS5A0W/HenpGrHAkcRiECiaI/EklCLJ6IpmZ5YzeW81BHZit1cxN/3UFybROzsZlcXWvZfGj+rqfnOwMwRSYeeLY957HOm3/V+dljE2dDsKtFt/4X3dseH/y7123jCXjLCF97dqrg8f6co8SmZjarld3USK1p4NYcJjJr9V970dhuDbuXkpGAB2LBwZGxjr7hwdGJRb3RbLFeQ8IfRwKPEEdgHoTcDI/T7KJHdEA4KMePfBBFwBrmPnenvbwUK84lCrJ8NeUyGDSF7N27oa89+JN/ninZ4tpVSOWsplSZtjvvoP7u67Nqjbkgn9q8NrmjGK8q6FNlwLnX4OlGS6mKKy11FuWichUqyHfm58+rSwP7H4pOtbs4XQxC3vjS0OhMT8/oyMj41WwdcRTiSM5FSKFAAhJxuVGmD6BfgIJHutbXWla3ule1elYdcaY1EhtPiOubmcKnhfQH+551wPfesKmf5dc/PPaCDswAL5igfG979sGZe09GmnnIOTSdeZRcW09tPu7e2MRua2Eymqh1DWjtIXvZUdtDvcFxOiG35Yz6Ix6uo7u3vX90fHZxdkF/DQl/HAayTmARQ+IuDrkYHieRQeLxWFDWCRCEIAVeHF5/qTM3y1heQpQW88VF3rISqjAb/vFr4W9/YygvM3zPLiZ/Q6Q6B1dtHirPh5eegp/9P+fOMlfJNn/xFqY4a75wy4XC9XDkV/rMTdHt1VRujlhWhlRqW3llX0UlnHpbnO32hckwLFE+qa2zt6tr8KrWCXLDUpZjeAljXYGUpwCQ9CdkkqJ/fZ/KPjiTdsSW90JwQyOxroFa/0TgugP0jfViWh1RfsKSVzd//aPGXzvgVQz6vPAGBQ1m2PDI9I2P6DNPsDfVOla1BtY8EVvVKK6qxTc1YFsb7Nsa7FkH5z7/nPlVCyzw8Ug8DsmQG2EdnZ3tPf3zetPUnPYaEi4LCYhDNM+QrMyoTBKMXAHu8YWX5N3iiJuBkAQW3cQPvj99+50zWQWJ7XeEi8qFonxSlWsrzbeo85xlOYQmh9Bk2ypyRwoz4JnmyHf+3lqtoiqKcFU2XlZAVBcaKzaYVKtQ7jp35uZ4SVmy5k6bavv5nBLskb0wOxXzUAE5BTw0sDB1vqtjbHxidnZWq9UajUa73a6kCShbCpf1fa70TRyLEE3SBMbQpMclJuSaJzkDQgQY9MDnG3qyftVWfsK5/qB5VT274QW4rta1qsl78yEi70kx/Yh99QHrrteie57Gaq2gadIVNZi21tnTjmDr6vC1DWhti2fdscBNjfyGVn79IWNxs6nk0MjOA+213fQgAj3jSVXqBHo6zvT3to+MDszOTc3PzzqdDhz/MPVIEQ9C6FoG3sdnCpMqNyQFRDEMQzICxfsEbzgQikXCMvFjxCeTUNjMT+fm62+9Fy+odhdW4FnbsPwthCqL1uTT1UV4VaG5LFtbvGVBtQ2OH4YffsdRVWwoznKWF1KVJez2QqZyA69Zx+WuhurSiLrStKXQcuvnZ//xn8MfnI2YDX6/EICozcWcH+xu7+oYGx2Zm5tbWJDTUR0Oh7LHfHUhgaUIjsJEBveJaCngTSRkV8GXqlL4rTZ0T2371vvPq44T257w/HUtf32zf1WjeGMtvvEov7GZ2dREFj3ruu5nwxtrzZuOWDcdsW1qcKY3Ehua6PVNaG0Tu6aRXd/CZbQy2+r0GQ923nakZ99F7LwtPM9HPQl5KwhzWgb72of622enR+ZmxoyGBQxzLi8oSrrRNSR8HAayKudYzi2yEi+nsFNIpHg36/K6fb6ALwkxD0/AkhsQBp3tb6nLbfd80Vii4ao10vYSvqqYUOdYCjJMBZuxsly0o4StKYWf/l/48t2Wwm3OkhzPnkq2opgszXLvyl3M+BQq2UoW51qLS4y775z5yjeE1idBp4sjMhIPeBLBsYWZMxfbxgaHJwaGF+e1Op1OaR92VSKBoXiGklJNQ7wSHwz4o0mZ+o5IUd892kZm/uT1vP3jRcfIVY9b01r49S3MxmPMukbnzbWmmw8ZthynbjqwuLHJnt7sSG9xprdg6UfxDS14WjO+rplY34hltpJZdYaKo/qyfd3ffm7ydUN0nAckb0yC6BKHBronR/rGhnv1izPzsxN2m3kZCcsbzNeQ8DuRgESvJLjkpGeBRiLFibQg8BLvckUhkYQlOZwaFEBCcPrUS6rSLo2Gums3t6ucqlZR8raAClWpSHU+Vpwl7VC7d5ZTpTmOgi1Ctcq7W4MVZ5LqbFvhJu+dVQZV9qy6qKO46OJtt4eeex7GxsBhg7A/ATEr5ezs7ZE7xEzOzg+PGxd1RqNcrKPodKU+4WqpWZMXF5k0h5V4VmRlw9MlCUuRmLzZHJFpv8bD8PBF9raGUdWB8eIGQ0ErvmrfYkYrvbEJX1fvXFPnSGsmNx1j01rotY3E2gZ8dZ1j9RH76sO2dXX2tAZnRqNNc8Kx6f4LqocvfuelhWdnl0bdYPTJOicGsKCdu3j2/cmR/pmJEf3inEG/4JCTjj7UCctIUF7yd8yGT/ajlZVtgVgkukVR4iSOlWhWoliB4lhWoHgeBTxhiHlDvFx1EJaAI5Lnz3zwhXv7q0sM20usO8uNmqL5vK26vK20piR0206iKMeWk8GWFXDlBUJ1Ma3JsxZmUFVF4h07DZVlhjtvPVVadPErX/C88kJsuA/cPATcADGaQ/1DQz2d3XPDE6bRGfv0olUvh8A/ZhqtBLv28uYJh1iek9s38iyiGRLnER3w+6JJubSfTVFBmgDqBz331fdqHr2Q/0h/Xp0t/7hrWxO/uZFPbxTX1YtpTd7rHrSnNfs3NPs2Nns2NUmbG/ktDezWBia/zrr1Z2d2Ptb2veemXl6Ij7lh0SPDIALgdGJ9nRf72s9PDvXp5qYX5madDofFYlH6+TKphpHLxQkrYWVZcUjgRJYXkMgiF8O6aE6k5MZ1JMeTHpcBYSGILiW8QQGTzaSABANd3ffdPrOneramcnF7hamqwq7ROEvVeHExpVIxJSpfTTWjLmKrS8nKIqyiwKDOH87PH9+552xNzfx//MRz8jVYmISIxyeQAFHOJYyMjp07fW68b1g/NqvtHyd0Frvpw50gpb5kuXLt8ibiFb4rFTgSGV6ULxgaUYSAaK8k+P2+WIrnwpVyGLQReHHa94Mn+zS/PJn9yGj6fkNmA7G5nkpv5NfW8Vueit7S4Ml4Kp7xZGTrieDWVvfWJrTliHPzAVPuY+M1v/7gUBt2ygLzAbCFgfDLdpHPHx4Z6O88+8HMcP/MyKBxYX5xXksStNlsxXFCMTKvVer8ocmBZEIckuZInqUlxLoZXqJ5juZplme8XibkE+LBoJzQteQVSIgFwCuC0QBHW2fvue9cVt5IURm2+2521z1k+U5UXsOV17Ca7ea8ArxCYywpxHdWLmyv7KrYMfGN74WffzHR2R5emIwKuMvNRCEq+N3D4+O9nb1DHf3TfWPmqUXjlNa6aHTa7E6nrNAVu0hR5VeLTpB5vwQ3yYoyZzzD8CwjcYyLowVE+X3eRKrvgSshs8azAH1YtLbdUXmkb+PewcITlq0t5vQW+01HLGuPsTc1M6uP8Tc3kTfUmm58fH7twdmspkXN09b7nl18eT7aY49NI3D45Sa2EQAGCd3t7YOd7SNd7QsTI4bZaaNWazaYMCdps2MEIXemWy5lXlYLf2hafCK/W2E6gUMYwgiEI0QJSN5VcKX4v1gkEpxgYWja73HFwrxPktPykhGQOBA5oEiYn4fnXpj8xnfeLtaczFF1lVYPlO8Yq949vmNXn0bTXaV5JWP9wJ01C9/5Jjz3MpzvhvFJsJoiEhOK+0IQE6KBnuGht996d3Z4yjpjmOodsy9anHZsbl7rcDgwDFOWMWVEVoiHdznTQ0ECjkSMYmgGSQLnFliRwRnM4pM4n1tSiptDKaIuXypnuy8CP+tgv/ziXM6D72c8eGbjQ+3bDo1lHBzPaZjLeHw47cELGQ+eqa7v+967jsPzcJIC8xIsUmExIlNkh2NAU9xAd894f+9Uf8/C2LB2bMRpNOjn5p12zGbFMJxeRsJymc5KKFhjWXZlIYHhECnQpEAzHCNXozOsRHMSLQiMSJCIYFhKEAWv1xsMLkWX5Fq2ZBTiPrkMJeKWdxtEGhamfedOkS8/P193cPbQ3skDD03XPWp4uo45+Vy4/z2Y7oWZOVgwAUVDLByHqBcis5j5/EDvwMDQRN/owsCkcXTePGswGSw6h12POwiZ34hWKC2W3eWVYNdeJhIoTiI52cyU6VVYRkCUhAgXI9PH+0RGzoaIyyUgMllqAvxRuSGIGwALwTgF7815j3VgD785/9MXxh94XXvglOnJHurdGU+/LTpHJ41c0s7HCD4UTcqFaZGlhH5B133hQt/FtpnBPv3kmGFqwjw3Z9XpHBYrJu8iMGSqFcblvPknf88KRAJDCjTNM6zcL5UVGU6i5c7aHMWxDM8iQZA55D1ety/g9XsDPp+8yxAJpTrfQSIgFzG7EUh03GFIOHRx+0LMuRAlF6OsPioaQXIAgYOsBmIAccLLj5gX2seHOwcGxgfGtP0TxoFpy5jWNG/Qm61zhENLOXF0tcJANuRYLuVqSSkkyA1nBUSJiJQQzhM2nrAJpENCeMDFxcM+uSJK5raJy13TEnKTa18U2CA43GAWgAiA0wN2PuZgAjTj8Ur+RDAMcZkLJxmLczQ9PznZc+GoGjyYAAAIcUlEQVR817nTY72di+Mj+qkJw8y0Sau16g0Oqx1zkgSJriHhchEu+wk8QwkMzTNIbh7MCh+CQcaDcgoUJ8eSSI6nOJphuUiQTYRciSVvNBQMB5KRsLzIRSNyHfNSUI4I+YSkl00G+GRYrtuCWBQiUY/PY3BauyZHTvd1tff1jQyNaocmTUPTtpE529SiWWfSO+yzjHOexXDuQ31wdVWrKRKXHWWWZziB4VKUW/LiIjsJIiJ9olwuzhI22m5iHCaJdgZEFPEL8bAYj7oSiUACYpGUVx1I7cR5UxZUQOblTCTkGGkYZP0RkBDuMOqmhvr7288Pdl6YGOiZHx9enBo3zs/J7oFebzNbHDYHjpMkhSg6lVJzudPhE71vZekExLIMh5Qz1cxGBkNKM7AuhnczvIvmJIrlCcTiCKX6hw3OzoybDGaGdi0txVJMCpBIxgJBeU2LxyEalSGRiMh2lJzJF+N5zmgx94wOfdB18UxPZ9fw4OjY+NzYlHl8zj4+75xadGqNVrPVSMgwWOQJBQlXIwwumUec0slGTnqXT9l19rpEr8S7eSQikiXspN2ImRdthrlk3BtPeGIy41NIXkuSUZ98xlLctHL5UgxiS/GAy8tQtMlp13ace7f/4tmxvs65sSHd7IRubmpxdko7M2XS60xGg1XOwXZgGE6QNCXTfl1DwiXD8gculXmv9HNCcoq2fKa2npHIshJi5dAqw4kMm1rleMTygtdrwrGhqanOgYGBsTGdycwKQiAYisbi0Wg0HA57PB6apvVGw/jkRN/gQEdfT3t/T8dAb/fQwPDE6OT05Pz0tH5qxjG34JxfxBYNTpPZ7rRbaMzIkRaBJuUuYfKx/NorpO52+X3+4IU871OnjAHZXEqZTHKlv9wHkBNF0SWJAs8yJI7ZLFaTcWBgYGR0bHZOa7E6ECcFwzG5ySyA2x/iXV45LdJkm5qe6x8Yau/ovNB2vrfj/Fh/x9zE8MLMxNzMxOzMpHZ+dnFxwWK1Wu12q8PhwHGMpEgG0SzL/JcU/+BbX4lfriydwCNWkr1kWQ+wKf1A87KllGr7RwscI7JI3nTjeZlfVpJEyUVTNEPRFEVZrNap2ZnewcGLPd1tXZ0nT3/w/rmzZy9cvNjV3dXb19M30Ns30NPf3zM00Dc6PDI5PjM3o1vUmha1Zu28cWYGM+gxkwGzmjGnDaMwJyIcPI0JSO5s8t9gsELCHX90wnCsTIAnt4JFNJfqvZnyHASKkwgkkKxIcyLDS0jecOAZxNIMu6C3zGpN41PaoZGp3t7h7q7+zo7uzvauoYHhvt6Brs6+ixd7LrT3tncNdPWO9A8ML8hKYHx+ekyGwey0dnFBbzKZbHYrjtsI0k6QGEUTDCIRYuR17lonkT86aKkbBMR6KM5LchLNcoileUQKsgOd8qEpJNAyUSTPIB4hkaMljhU4DsO9FBPgBQ/HUThmNOrlBJfZqemF+fHZmeHx8YHhkcHBYbkIc3xqZmpGb9TPLczPzkxrZ6YtC/NOvQ4z6O36BcJucjpNTsLqpBw4g5MsycgPYpnfBYOVwM9zORLlWEZEhNwNFlF8CgkMJ8OA5Nyk4MV5r5N1OxjRyYg4EmneRQtuBxLNBKOzOmYWdBPTU2PjI2Ojg2Mj/f29HYMDPSOjQ+NTk5Nz2ulFw5TONKs3zs1Pa+cmtNqpRb3WaDFbMMyCE2actNKMnUFOBmEIparSWcSzK7XvpizLFacT3BTnoTiJkZHAcIiSkZCKJok0I0dXaZqlKY4mWBrjaJIhvSznJSkRw3kcZymCJDCr3aIz6qfmZ6fn52a12nntgla7oNMu6ucXddrFycmJ+fk5k15v1estWq1lfs5h0OE2M45ZMdLmpBwYwkiWRBzDcUi4ZA1TjKLlndHLmYhX/J4UEkgxhQRFJzCsTC5Ici4rydoo3k4LDkbEWRfFu5HoRS4v7w/RLi+GWIvDoTcZdPp53eKMfnF6fnZsfm5CuzCj1S0sGAxak3nebFswW6Znpxa0M3rjoslqMtttFidmJUgbxTgY1sGwGGIJlk2F/TjEs5xwTSdc3qRQ/AQBfWgdpVyE/3KgZbeBTZ2y/yDbv0gOhiAhdcr1bh+awvIybrXbrDb5tNlsVqtV/s9sSTlwdrvd7rDbnXY7ZrfjDgfucGBOBysvmXLAatk5Uazqy3vxFXvXf/kJlzgJSkBJiSkJcmSJ5RlZ5LLCpWXaPI5mWZphUvFjmqZJhibtNotNPq2KVC12u8XusNjtTqfD6XRgmNMpn7Jv7CTkk+HktUReTuTzIx9lxcpppemE/0VBEakD/+jAPjqcqeOjn7CPfo//Lz76av+nlAiBspWuhJBpmnb8nkMRoCJtgpBzipTjqhPCyrKO/tfFpwzq8g4xwzCXjhb10UHTcqD72rEsgf8OhuW5/rELRYTyPvwlO/FXS17W8vddcX7CpW/2P7xWUrs+FvG8dJ1bHuz/4YP+XP/6snyW1YIy3T/2p3LbshCWvanlT66Wi78InXApAC4dGGXYFOrySz//S77+72vHx+b6x4SzPPWXYwlKat3Hblv5P/7ZIkEZv2W7aHklWx6SS2FwtURFl1/+T3exPLOXH6FIcvnzj10sl55dioSrUZ5/tkhQBuxjw6kM6vJO2aWDunznX/jF77Mqf59YloV5KSSulp3HS7/Uny0SPmruKP9fsX+Ueb8MhuUh/BhmLpXOX+D1pbK6nAn93+WpQOKqE92fLRKuupG49sJXVgLXkHBl5X/t6StFAteQsFJG4tp7XFkJXEPClZX/taevFAlcQ8JKGYlr73FlJXANCVdW/teevlIkcA0JK2Ukrr3HlZXANSRcWflfe/pKkcA1JKyUkbj2HldWAteQcGXlf+3pK0UC/z+HKHR3bnnXUAAAAABJRU5ErkJggg==;" vertex="1" parent="7">
                    <mxGeometry x="440" y="100" width="259" height="194" as="geometry"/>
                </mxCell>
            </root>
        </mxGraphModel>
    </diagram>
</mxfile>